<mxfile host="65bd71144e">
    <diagram id="Zh2FEWwTdVQycIdZ15-T" name="Page-1">
        <mxGraphModel dx="1806" dy="802" grid="1" gridSize="10" guides="1" tooltips="1" connect="1" arrows="1" fold="1" page="1" pageScale="1" pageWidth="850" pageHeight="1100" math="0" shadow="0">
            <root>
                <mxCell id="0"/>
                <mxCell id="1" parent="0"/>
                <mxCell id="h37pQN8pNh0YvQ1FQnEW-7" style="edgeStyle=orthogonalEdgeStyle;rounded=0;orthogonalLoop=1;jettySize=auto;html=1;entryX=0;entryY=0.5;entryDx=0;entryDy=0;fontSize=17;" parent="1" source="h37pQN8pNh0YvQ1FQnEW-1" target="h37pQN8pNh0YvQ1FQnEW-4" edge="1">
                    <mxGeometry relative="1" as="geometry">
                        <Array as="points">
                            <mxPoint x="170" y="325"/>
                            <mxPoint x="170" y="235"/>
                        </Array>
                    </mxGeometry>
                </mxCell>
                <mxCell id="h37pQN8pNh0YvQ1FQnEW-22" style="edgeStyle=orthogonalEdgeStyle;rounded=0;orthogonalLoop=1;jettySize=auto;html=1;entryX=0;entryY=0.5;entryDx=0;entryDy=0;fontSize=17;" parent="1" source="h37pQN8pNh0YvQ1FQnEW-1" target="h37pQN8pNh0YvQ1FQnEW-5" edge="1">
                    <mxGeometry relative="1" as="geometry">
                        <Array as="points">
                            <mxPoint x="170" y="325"/>
                            <mxPoint x="170" y="470"/>
                        </Array>
                    </mxGeometry>
                </mxCell>
                <mxCell id="h37pQN8pNh0YvQ1FQnEW-1" value="&lt;span lang=&quot;EN-US&quot; style=&quot;font-size: 17px; line-height: 15.6933px; font-family: calibri, sans-serif;&quot;&gt;To assess the degree of change in land use type and land cover occurring in and around core zones in the World Heritage cities&lt;/span&gt;&lt;span style=&quot;font-size: 17px;&quot;&gt;&lt;/span&gt;" style="rounded=0;whiteSpace=wrap;html=1;fontSize=17;" parent="1" vertex="1">
                    <mxGeometry x="-210" y="270" width="360" height="110" as="geometry"/>
                </mxCell>
                <mxCell id="h37pQN8pNh0YvQ1FQnEW-2" value="1.AIM" style="rounded=0;whiteSpace=wrap;html=1;fontSize=16;fillColor=#dae8fc;strokeColor=#6c8ebf;" parent="1" vertex="1">
                    <mxGeometry x="-120" y="20" width="120" height="60" as="geometry"/>
                </mxCell>
                <mxCell id="h37pQN8pNh0YvQ1FQnEW-3" value="2.QUESTIONS" style="rounded=0;whiteSpace=wrap;html=1;fontSize=16;fillColor=#dae8fc;strokeColor=#6c8ebf;" parent="1" vertex="1">
                    <mxGeometry x="270" y="20" width="120" height="60" as="geometry"/>
                </mxCell>
                <mxCell id="h37pQN8pNh0YvQ1FQnEW-13" style="edgeStyle=orthogonalEdgeStyle;rounded=0;orthogonalLoop=1;jettySize=auto;html=1;entryX=0;entryY=0.5;entryDx=0;entryDy=0;fontSize=17;" parent="1" source="h37pQN8pNh0YvQ1FQnEW-4" target="h37pQN8pNh0YvQ1FQnEW-10" edge="1">
                    <mxGeometry relative="1" as="geometry"/>
                </mxCell>
                <mxCell id="h37pQN8pNh0YvQ1FQnEW-14" style="edgeStyle=orthogonalEdgeStyle;rounded=0;orthogonalLoop=1;jettySize=auto;html=1;entryX=0;entryY=0.5;entryDx=0;entryDy=0;fontSize=17;" parent="1" source="h37pQN8pNh0YvQ1FQnEW-4" target="h37pQN8pNh0YvQ1FQnEW-9" edge="1">
                    <mxGeometry relative="1" as="geometry"/>
                </mxCell>
                <mxCell id="h37pQN8pNh0YvQ1FQnEW-15" style="edgeStyle=orthogonalEdgeStyle;rounded=0;orthogonalLoop=1;jettySize=auto;html=1;fontSize=17;" parent="1" source="h37pQN8pNh0YvQ1FQnEW-4" target="h37pQN8pNh0YvQ1FQnEW-11" edge="1">
                    <mxGeometry relative="1" as="geometry"/>
                </mxCell>
                <mxCell id="h37pQN8pNh0YvQ1FQnEW-4" value="&lt;i&gt;HOW URBAN IS WORLD HERITAGE?&lt;/i&gt;" style="rounded=0;whiteSpace=wrap;html=1;fontSize=16;fillColor=#f8cecc;strokeColor=#b85450;" parent="1" vertex="1">
                    <mxGeometry x="200" y="190" width="180" height="90" as="geometry"/>
                </mxCell>
                <mxCell id="h37pQN8pNh0YvQ1FQnEW-19" style="edgeStyle=orthogonalEdgeStyle;rounded=0;orthogonalLoop=1;jettySize=auto;html=1;fontSize=17;" parent="1" source="h37pQN8pNh0YvQ1FQnEW-5" target="h37pQN8pNh0YvQ1FQnEW-16" edge="1">
                    <mxGeometry relative="1" as="geometry"/>
                </mxCell>
                <mxCell id="h37pQN8pNh0YvQ1FQnEW-20" style="edgeStyle=orthogonalEdgeStyle;rounded=0;orthogonalLoop=1;jettySize=auto;html=1;entryX=0;entryY=0.5;entryDx=0;entryDy=0;fontSize=17;" parent="1" source="h37pQN8pNh0YvQ1FQnEW-5" target="h37pQN8pNh0YvQ1FQnEW-18" edge="1">
                    <mxGeometry relative="1" as="geometry"/>
                </mxCell>
                <mxCell id="h37pQN8pNh0YvQ1FQnEW-21" style="edgeStyle=orthogonalEdgeStyle;rounded=0;orthogonalLoop=1;jettySize=auto;html=1;fontSize=17;" parent="1" source="h37pQN8pNh0YvQ1FQnEW-5" target="h37pQN8pNh0YvQ1FQnEW-17" edge="1">
                    <mxGeometry relative="1" as="geometry"/>
                </mxCell>
                <mxCell id="h37pQN8pNh0YvQ1FQnEW-5" value="&lt;i&gt;WHAT IS THE INFLUENCE OF THE WORLD HERITAGE NOMINATION ON ON URBANISATION OF WORLD HERITAGE?&amp;nbsp;&lt;/i&gt;" style="rounded=0;whiteSpace=wrap;html=1;fontSize=16;fillColor=#f8cecc;strokeColor=#b85450;" parent="1" vertex="1">
                    <mxGeometry x="200" y="410" width="240" height="120" as="geometry"/>
                </mxCell>
                <mxCell id="h37pQN8pNh0YvQ1FQnEW-6" value="3.SUB-OBJECTIVES" style="rounded=0;whiteSpace=wrap;html=1;fontSize=16;fillColor=#dae8fc;strokeColor=#6c8ebf;" parent="1" vertex="1">
                    <mxGeometry x="620" y="20" width="120" height="60" as="geometry"/>
                </mxCell>
                <mxCell id="h37pQN8pNh0YvQ1FQnEW-36" style="edgeStyle=orthogonalEdgeStyle;rounded=0;orthogonalLoop=1;jettySize=auto;html=1;entryX=0;entryY=0.5;entryDx=0;entryDy=0;fontSize=17;" parent="1" source="h37pQN8pNh0YvQ1FQnEW-9" target="h37pQN8pNh0YvQ1FQnEW-31" edge="1">
                    <mxGeometry relative="1" as="geometry"/>
                </mxCell>
                <mxCell id="h37pQN8pNh0YvQ1FQnEW-9" value="&lt;span&gt;B. TO TRANSFORM SPATIAL DATA INTO WORKABLE FORMATS.&lt;/span&gt;" style="rounded=0;whiteSpace=wrap;html=1;fontSize=17;" parent="1" vertex="1">
                    <mxGeometry x="480" y="205" width="450" height="60" as="geometry"/>
                </mxCell>
                <mxCell id="h37pQN8pNh0YvQ1FQnEW-95" style="edgeStyle=orthogonalEdgeStyle;rounded=0;orthogonalLoop=1;jettySize=auto;html=1;fontSize=17;" parent="1" source="h37pQN8pNh0YvQ1FQnEW-10" target="h37pQN8pNh0YvQ1FQnEW-34" edge="1">
                    <mxGeometry relative="1" as="geometry"/>
                </mxCell>
                <mxCell id="h37pQN8pNh0YvQ1FQnEW-10" value="&lt;span&gt;A. TO COLLECT AND ASSESS THE&amp;nbsp; QUALITY OF &lt;/span&gt;SPATIAL DATA OF&amp;nbsp;&lt;span&gt;WORLD HERITAGE PROPERTIES.&lt;/span&gt;" style="rounded=0;whiteSpace=wrap;html=1;fontSize=17;" parent="1" vertex="1">
                    <mxGeometry x="480" y="120" width="450" height="60" as="geometry"/>
                </mxCell>
                <mxCell id="h37pQN8pNh0YvQ1FQnEW-33" style="edgeStyle=orthogonalEdgeStyle;rounded=0;orthogonalLoop=1;jettySize=auto;html=1;entryX=0;entryY=0.5;entryDx=0;entryDy=0;fontSize=17;" parent="1" source="h37pQN8pNh0YvQ1FQnEW-11" target="h37pQN8pNh0YvQ1FQnEW-25" edge="1">
                    <mxGeometry relative="1" as="geometry"/>
                </mxCell>
                <mxCell id="h37pQN8pNh0YvQ1FQnEW-11" value="&lt;span&gt;C. TO COMPARE LAND COVER AND LAND USE TYPE CHANGE IN WORLD HERITAGE PROPERTIES.&amp;nbsp;&lt;/span&gt;" style="rounded=0;whiteSpace=wrap;html=1;fontSize=17;" parent="1" vertex="1">
                    <mxGeometry x="480" y="280" width="450" height="60" as="geometry"/>
                </mxCell>
                <mxCell id="h37pQN8pNh0YvQ1FQnEW-27" style="edgeStyle=orthogonalEdgeStyle;rounded=0;orthogonalLoop=1;jettySize=auto;html=1;fontSize=17;" parent="1" source="h37pQN8pNh0YvQ1FQnEW-16" target="h37pQN8pNh0YvQ1FQnEW-25" edge="1">
                    <mxGeometry relative="1" as="geometry"/>
                </mxCell>
                <mxCell id="h37pQN8pNh0YvQ1FQnEW-16" value="A. TO ASSESS THE AMOUNT OF LANDCOVER AND LAND USE TYPE CHANGE BEFORE NOMINATION" style="rounded=0;whiteSpace=wrap;html=1;fontSize=17;" parent="1" vertex="1">
                    <mxGeometry x="480" y="360" width="450" height="60" as="geometry"/>
                </mxCell>
                <mxCell id="h37pQN8pNh0YvQ1FQnEW-28" style="edgeStyle=orthogonalEdgeStyle;rounded=0;orthogonalLoop=1;jettySize=auto;html=1;entryX=0;entryY=0.5;entryDx=0;entryDy=0;fontSize=17;" parent="1" source="h37pQN8pNh0YvQ1FQnEW-17" target="h37pQN8pNh0YvQ1FQnEW-25" edge="1">
                    <mxGeometry relative="1" as="geometry"/>
                </mxCell>
                <mxCell id="h37pQN8pNh0YvQ1FQnEW-17" value="B. TO ASSESS THE AMOUNT OF LANDCOVER AND LAND USE TYPE CHANGE AFTER NOMINATION&amp;nbsp;" style="rounded=0;whiteSpace=wrap;html=1;fontSize=17;" parent="1" vertex="1">
                    <mxGeometry x="480" y="440" width="450" height="60" as="geometry"/>
                </mxCell>
                <mxCell id="h37pQN8pNh0YvQ1FQnEW-30" style="edgeStyle=orthogonalEdgeStyle;rounded=0;orthogonalLoop=1;jettySize=auto;html=1;fontSize=17;" parent="1" source="h37pQN8pNh0YvQ1FQnEW-18" target="h37pQN8pNh0YvQ1FQnEW-29" edge="1">
                    <mxGeometry relative="1" as="geometry"/>
                </mxCell>
                <mxCell id="h37pQN8pNh0YvQ1FQnEW-18" value="C. TO COMPARE THE AMOUNT AND RATE OF CHANGE IN LAND USE AND LANDCOVER BEFORE AND&amp;nbsp; &amp;nbsp;AFTER NOMINATION" style="rounded=0;whiteSpace=wrap;html=1;fontSize=17;" parent="1" vertex="1">
                    <mxGeometry x="480" y="530" width="450" height="60" as="geometry"/>
                </mxCell>
                <mxCell id="h37pQN8pNh0YvQ1FQnEW-23" value="4.METHODS" style="rounded=0;whiteSpace=wrap;html=1;fontSize=17;fillColor=#dae8fc;strokeColor=#6c8ebf;" parent="1" vertex="1">
                    <mxGeometry x="1037.5" y="20" width="120" height="60" as="geometry"/>
                </mxCell>
                <mxCell id="h37pQN8pNh0YvQ1FQnEW-24" value="7.SOURCES" style="rounded=0;whiteSpace=wrap;html=1;fontSize=17;fillColor=#dae8fc;strokeColor=#6c8ebf;" parent="1" vertex="1">
                    <mxGeometry x="1885" y="20" width="240" height="60" as="geometry"/>
                </mxCell>
                <mxCell id="h37pQN8pNh0YvQ1FQnEW-45" style="edgeStyle=orthogonalEdgeStyle;rounded=0;orthogonalLoop=1;jettySize=auto;html=1;fontSize=17;" parent="1" source="h37pQN8pNh0YvQ1FQnEW-25" target="h37pQN8pNh0YvQ1FQnEW-38" edge="1">
                    <mxGeometry relative="1" as="geometry"/>
                </mxCell>
                <mxCell id="h37pQN8pNh0YvQ1FQnEW-46" style="edgeStyle=orthogonalEdgeStyle;rounded=0;orthogonalLoop=1;jettySize=auto;html=1;entryX=0;entryY=0.5;entryDx=0;entryDy=0;fontSize=17;" parent="1" source="h37pQN8pNh0YvQ1FQnEW-25" target="h37pQN8pNh0YvQ1FQnEW-39" edge="1">
                    <mxGeometry relative="1" as="geometry"/>
                </mxCell>
                <mxCell id="h37pQN8pNh0YvQ1FQnEW-47" style="edgeStyle=orthogonalEdgeStyle;rounded=0;orthogonalLoop=1;jettySize=auto;html=1;entryX=0;entryY=0.25;entryDx=0;entryDy=0;fontSize=17;" parent="1" source="h37pQN8pNh0YvQ1FQnEW-25" target="h37pQN8pNh0YvQ1FQnEW-40" edge="1">
                    <mxGeometry relative="1" as="geometry"/>
                </mxCell>
                <mxCell id="h37pQN8pNh0YvQ1FQnEW-71" style="edgeStyle=orthogonalEdgeStyle;rounded=0;orthogonalLoop=1;jettySize=auto;html=1;fontSize=17;" parent="1" source="h37pQN8pNh0YvQ1FQnEW-25" target="h37pQN8pNh0YvQ1FQnEW-65" edge="1">
                    <mxGeometry relative="1" as="geometry"/>
                </mxCell>
                <mxCell id="h37pQN8pNh0YvQ1FQnEW-72" style="edgeStyle=orthogonalEdgeStyle;rounded=0;orthogonalLoop=1;jettySize=auto;html=1;fontSize=17;" parent="1" source="h37pQN8pNh0YvQ1FQnEW-25" target="h37pQN8pNh0YvQ1FQnEW-67" edge="1">
                    <mxGeometry relative="1" as="geometry"/>
                </mxCell>
                <mxCell id="h37pQN8pNh0YvQ1FQnEW-25" value="LAND COVER AND LAND USE CHANGE DETECTION" style="rounded=0;whiteSpace=wrap;html=1;fontSize=17;" parent="1" vertex="1">
                    <mxGeometry x="1022.5" y="360" width="255" height="60" as="geometry"/>
                </mxCell>
                <mxCell id="h37pQN8pNh0YvQ1FQnEW-26" value="5.DATA TYPE&amp;nbsp;" style="rounded=0;whiteSpace=wrap;html=1;fontSize=17;fillColor=#dae8fc;strokeColor=#6c8ebf;" parent="1" vertex="1">
                    <mxGeometry x="1350" y="20" width="235" height="60" as="geometry"/>
                </mxCell>
                <mxCell id="h37pQN8pNh0YvQ1FQnEW-74" style="edgeStyle=orthogonalEdgeStyle;rounded=0;orthogonalLoop=1;jettySize=auto;html=1;fontSize=17;" parent="1" source="h37pQN8pNh0YvQ1FQnEW-29" target="h37pQN8pNh0YvQ1FQnEW-73" edge="1">
                    <mxGeometry relative="1" as="geometry"/>
                </mxCell>
                <mxCell id="h37pQN8pNh0YvQ1FQnEW-29" value="STATISTICAL ANALYSIS" style="rounded=0;whiteSpace=wrap;html=1;fontSize=17;" parent="1" vertex="1">
                    <mxGeometry x="1020" y="530" width="260" height="60" as="geometry"/>
                </mxCell>
                <mxCell id="h37pQN8pNh0YvQ1FQnEW-42" style="edgeStyle=orthogonalEdgeStyle;rounded=0;orthogonalLoop=1;jettySize=auto;html=1;entryX=0;entryY=0.5;entryDx=0;entryDy=0;fontSize=17;" parent="1" source="h37pQN8pNh0YvQ1FQnEW-31" target="h37pQN8pNh0YvQ1FQnEW-34" edge="1">
                    <mxGeometry relative="1" as="geometry"/>
                </mxCell>
                <mxCell id="h37pQN8pNh0YvQ1FQnEW-43" style="edgeStyle=orthogonalEdgeStyle;rounded=0;orthogonalLoop=1;jettySize=auto;html=1;entryX=0;entryY=0.5;entryDx=0;entryDy=0;fontSize=17;" parent="1" source="h37pQN8pNh0YvQ1FQnEW-31" target="h37pQN8pNh0YvQ1FQnEW-35" edge="1">
                    <mxGeometry relative="1" as="geometry"/>
                </mxCell>
                <mxCell id="h37pQN8pNh0YvQ1FQnEW-44" style="edgeStyle=orthogonalEdgeStyle;rounded=0;orthogonalLoop=1;jettySize=auto;html=1;fontSize=17;" parent="1" source="h37pQN8pNh0YvQ1FQnEW-31" target="h37pQN8pNh0YvQ1FQnEW-37" edge="1">
                    <mxGeometry relative="1" as="geometry"/>
                </mxCell>
                <mxCell id="h37pQN8pNh0YvQ1FQnEW-55" style="edgeStyle=orthogonalEdgeStyle;rounded=0;orthogonalLoop=1;jettySize=auto;html=1;entryX=0;entryY=0.5;entryDx=0;entryDy=0;fontSize=17;" parent="1" source="h37pQN8pNh0YvQ1FQnEW-31" target="h37pQN8pNh0YvQ1FQnEW-54" edge="1">
                    <mxGeometry relative="1" as="geometry"/>
                </mxCell>
                <mxCell id="h37pQN8pNh0YvQ1FQnEW-69" style="edgeStyle=orthogonalEdgeStyle;rounded=0;orthogonalLoop=1;jettySize=auto;html=1;fontSize=17;" parent="1" source="h37pQN8pNh0YvQ1FQnEW-31" target="h37pQN8pNh0YvQ1FQnEW-66" edge="1">
                    <mxGeometry relative="1" as="geometry"/>
                </mxCell>
                <mxCell id="h37pQN8pNh0YvQ1FQnEW-31" value="SPATIAL DATA CONVERSION/TRANSLATION" style="rounded=0;whiteSpace=wrap;html=1;fontSize=17;" parent="1" vertex="1">
                    <mxGeometry x="1020" y="205" width="260" height="60" as="geometry"/>
                </mxCell>
                <mxCell id="h37pQN8pNh0YvQ1FQnEW-56" style="edgeStyle=orthogonalEdgeStyle;rounded=0;orthogonalLoop=1;jettySize=auto;html=1;entryX=0;entryY=0.5;entryDx=0;entryDy=0;fontSize=17;" parent="1" source="h37pQN8pNh0YvQ1FQnEW-34" target="h37pQN8pNh0YvQ1FQnEW-49" edge="1">
                    <mxGeometry relative="1" as="geometry"/>
                </mxCell>
                <mxCell id="h37pQN8pNh0YvQ1FQnEW-34" value="BOUNDARY OF WH PROPERTIES" style="rounded=0;whiteSpace=wrap;html=1;fontSize=17;" parent="1" vertex="1">
                    <mxGeometry x="1360" y="110" width="220" height="50" as="geometry"/>
                </mxCell>
                <mxCell id="h37pQN8pNh0YvQ1FQnEW-63" style="edgeStyle=orthogonalEdgeStyle;rounded=0;orthogonalLoop=1;jettySize=auto;html=1;entryX=0;entryY=0.5;entryDx=0;entryDy=0;fontSize=17;" parent="1" source="h37pQN8pNh0YvQ1FQnEW-35" target="h37pQN8pNh0YvQ1FQnEW-49" edge="1">
                    <mxGeometry relative="1" as="geometry"/>
                </mxCell>
                <mxCell id="h37pQN8pNh0YvQ1FQnEW-64" style="edgeStyle=orthogonalEdgeStyle;rounded=0;orthogonalLoop=1;jettySize=auto;html=1;fontSize=17;" parent="1" source="h37pQN8pNh0YvQ1FQnEW-35" target="h37pQN8pNh0YvQ1FQnEW-50" edge="1">
                    <mxGeometry relative="1" as="geometry"/>
                </mxCell>
                <mxCell id="h37pQN8pNh0YvQ1FQnEW-35" value="BUFFER ZONES" style="rounded=0;whiteSpace=wrap;html=1;fontSize=17;" parent="1" vertex="1">
                    <mxGeometry x="1358" y="170" width="220" height="60" as="geometry"/>
                </mxCell>
                <mxCell id="h37pQN8pNh0YvQ1FQnEW-61" style="edgeStyle=orthogonalEdgeStyle;rounded=0;orthogonalLoop=1;jettySize=auto;html=1;entryX=0;entryY=0.5;entryDx=0;entryDy=0;fontSize=17;" parent="1" source="h37pQN8pNh0YvQ1FQnEW-37" target="h37pQN8pNh0YvQ1FQnEW-50" edge="1">
                    <mxGeometry relative="1" as="geometry"/>
                </mxCell>
                <mxCell id="h37pQN8pNh0YvQ1FQnEW-62" style="edgeStyle=orthogonalEdgeStyle;rounded=0;orthogonalLoop=1;jettySize=auto;html=1;entryX=0;entryY=0.5;entryDx=0;entryDy=0;fontSize=17;" parent="1" source="h37pQN8pNh0YvQ1FQnEW-37" target="h37pQN8pNh0YvQ1FQnEW-49" edge="1">
                    <mxGeometry relative="1" as="geometry"/>
                </mxCell>
                <mxCell id="h37pQN8pNh0YvQ1FQnEW-37" value="WORLD HERITAGE CITIES" style="rounded=0;whiteSpace=wrap;html=1;fontSize=17;" parent="1" vertex="1">
                    <mxGeometry x="1360" y="240" width="220" height="60" as="geometry"/>
                </mxCell>
                <mxCell id="h37pQN8pNh0YvQ1FQnEW-59" style="edgeStyle=orthogonalEdgeStyle;rounded=0;orthogonalLoop=1;jettySize=auto;html=1;entryX=0;entryY=0.5;entryDx=0;entryDy=0;fontSize=17;" parent="1" source="h37pQN8pNh0YvQ1FQnEW-38" target="h37pQN8pNh0YvQ1FQnEW-51" edge="1">
                    <mxGeometry relative="1" as="geometry">
                        <Array as="points">
                            <mxPoint x="1610" y="410"/>
                            <mxPoint x="1610" y="480"/>
                        </Array>
                    </mxGeometry>
                </mxCell>
                <mxCell id="h37pQN8pNh0YvQ1FQnEW-38" value="GLOBAL URBAN FOOT PRINT" style="rounded=0;whiteSpace=wrap;html=1;fontSize=17;" parent="1" vertex="1">
                    <mxGeometry x="1357.5" y="380" width="220" height="60" as="geometry"/>
                </mxCell>
                <mxCell id="h37pQN8pNh0YvQ1FQnEW-58" style="edgeStyle=orthogonalEdgeStyle;rounded=0;orthogonalLoop=1;jettySize=auto;html=1;fontSize=17;" parent="1" source="h37pQN8pNh0YvQ1FQnEW-39" target="h37pQN8pNh0YvQ1FQnEW-51" edge="1">
                    <mxGeometry relative="1" as="geometry"/>
                </mxCell>
                <mxCell id="h37pQN8pNh0YvQ1FQnEW-39" value="WORLD HUMAN SETTLEMENT LAYER" style="rounded=0;whiteSpace=wrap;html=1;fontSize=17;" parent="1" vertex="1">
                    <mxGeometry x="1360" y="450" width="220" height="60" as="geometry"/>
                </mxCell>
                <mxCell id="h37pQN8pNh0YvQ1FQnEW-57" style="edgeStyle=orthogonalEdgeStyle;rounded=0;orthogonalLoop=1;jettySize=auto;html=1;entryX=0;entryY=0.5;entryDx=0;entryDy=0;fontSize=17;" parent="1" source="h37pQN8pNh0YvQ1FQnEW-40" target="h37pQN8pNh0YvQ1FQnEW-51" edge="1">
                    <mxGeometry relative="1" as="geometry"/>
                </mxCell>
                <mxCell id="h37pQN8pNh0YvQ1FQnEW-40" value="NIGHTLIGHTS LAYER" style="rounded=0;whiteSpace=wrap;html=1;fontSize=17;" parent="1" vertex="1">
                    <mxGeometry x="1360" y="540" width="220" height="60" as="geometry"/>
                </mxCell>
                <mxCell id="h37pQN8pNh0YvQ1FQnEW-48" value="&lt;span&gt;6.FORMAT&lt;/span&gt;" style="rounded=0;whiteSpace=wrap;html=1;fontSize=17;fillColor=#dae8fc;strokeColor=#6c8ebf;" parent="1" vertex="1">
                    <mxGeometry x="1660" y="20" width="120" height="60" as="geometry"/>
                </mxCell>
                <mxCell id="h37pQN8pNh0YvQ1FQnEW-81" style="edgeStyle=orthogonalEdgeStyle;rounded=0;orthogonalLoop=1;jettySize=auto;html=1;fontSize=17;" parent="1" source="h37pQN8pNh0YvQ1FQnEW-49" target="h37pQN8pNh0YvQ1FQnEW-76" edge="1">
                    <mxGeometry relative="1" as="geometry"/>
                </mxCell>
                <mxCell id="h37pQN8pNh0YvQ1FQnEW-49" value="1. SHAPE FILES" style="rounded=1;whiteSpace=wrap;html=1;fontSize=17;" parent="1" vertex="1">
                    <mxGeometry x="1640" y="145" width="160" height="60" as="geometry"/>
                </mxCell>
                <mxCell id="h37pQN8pNh0YvQ1FQnEW-83" style="edgeStyle=orthogonalEdgeStyle;rounded=0;orthogonalLoop=1;jettySize=auto;html=1;fontSize=17;" parent="1" source="h37pQN8pNh0YvQ1FQnEW-50" target="h37pQN8pNh0YvQ1FQnEW-77" edge="1">
                    <mxGeometry relative="1" as="geometry"/>
                </mxCell>
                <mxCell id="h37pQN8pNh0YvQ1FQnEW-87" style="edgeStyle=orthogonalEdgeStyle;rounded=0;orthogonalLoop=1;jettySize=auto;html=1;entryX=0;entryY=0.5;entryDx=0;entryDy=0;fontSize=17;" parent="1" source="h37pQN8pNh0YvQ1FQnEW-50" target="h37pQN8pNh0YvQ1FQnEW-76" edge="1">
                    <mxGeometry relative="1" as="geometry"/>
                </mxCell>
                <mxCell id="h37pQN8pNh0YvQ1FQnEW-50" value="&lt;span&gt;2.GEOJSON/JSON&lt;/span&gt;" style="rounded=1;whiteSpace=wrap;html=1;fontSize=17;" parent="1" vertex="1">
                    <mxGeometry x="1640" y="230" width="160" height="60" as="geometry"/>
                </mxCell>
                <mxCell id="h37pQN8pNh0YvQ1FQnEW-85" style="edgeStyle=orthogonalEdgeStyle;rounded=0;orthogonalLoop=1;jettySize=auto;html=1;fontSize=17;" parent="1" source="h37pQN8pNh0YvQ1FQnEW-51" target="h37pQN8pNh0YvQ1FQnEW-80" edge="1">
                    <mxGeometry relative="1" as="geometry"/>
                </mxCell>
                <mxCell id="h37pQN8pNh0YvQ1FQnEW-51" value="4.RASTER" style="rounded=1;whiteSpace=wrap;html=1;fontSize=17;" parent="1" vertex="1">
                    <mxGeometry x="1640" y="450" width="160" height="60" as="geometry"/>
                </mxCell>
                <mxCell id="h37pQN8pNh0YvQ1FQnEW-84" style="edgeStyle=orthogonalEdgeStyle;rounded=0;orthogonalLoop=1;jettySize=auto;html=1;entryX=0;entryY=0.5;entryDx=0;entryDy=0;fontSize=17;" parent="1" source="h37pQN8pNh0YvQ1FQnEW-52" target="h37pQN8pNh0YvQ1FQnEW-78" edge="1">
                    <mxGeometry relative="1" as="geometry"/>
                </mxCell>
                <mxCell id="h37pQN8pNh0YvQ1FQnEW-52" value="3.CSV" style="rounded=1;whiteSpace=wrap;html=1;fontSize=17;" parent="1" vertex="1">
                    <mxGeometry x="1640" y="310" width="160" height="60" as="geometry"/>
                </mxCell>
                <mxCell id="h37pQN8pNh0YvQ1FQnEW-60" style="edgeStyle=orthogonalEdgeStyle;rounded=0;orthogonalLoop=1;jettySize=auto;html=1;entryX=0;entryY=0.5;entryDx=0;entryDy=0;fontSize=17;" parent="1" source="h37pQN8pNh0YvQ1FQnEW-54" target="h37pQN8pNh0YvQ1FQnEW-52" edge="1">
                    <mxGeometry relative="1" as="geometry"/>
                </mxCell>
                <mxCell id="h37pQN8pNh0YvQ1FQnEW-54" value="WORLD HERITAGE POINTS" style="rounded=0;whiteSpace=wrap;html=1;fontSize=17;" parent="1" vertex="1">
                    <mxGeometry x="1357" y="310" width="222" height="60" as="geometry"/>
                </mxCell>
                <mxCell id="h37pQN8pNh0YvQ1FQnEW-65" value="QGIS" style="rounded=0;whiteSpace=wrap;html=1;fontSize=17;sketch=1;fillColor=none;" parent="1" vertex="1">
                    <mxGeometry x="1030" y="455" width="120" height="60" as="geometry"/>
                </mxCell>
                <mxCell id="h37pQN8pNh0YvQ1FQnEW-66" value="FME" style="rounded=0;whiteSpace=wrap;html=1;fontSize=17;sketch=1;fillColor=none;" parent="1" vertex="1">
                    <mxGeometry x="1090" y="280" width="120" height="60" as="geometry"/>
                </mxCell>
                <mxCell id="h37pQN8pNh0YvQ1FQnEW-67" value="ArcGIS" style="rounded=0;whiteSpace=wrap;html=1;fontSize=17;sketch=1;shadow=0;glass=0;fillColor=none;" parent="1" vertex="1">
                    <mxGeometry x="1157.5" y="455" width="120" height="60" as="geometry"/>
                </mxCell>
                <mxCell id="h37pQN8pNh0YvQ1FQnEW-73" value="SPSS???" style="rounded=0;whiteSpace=wrap;html=1;fontSize=17;sketch=1;fillColor=none;" parent="1" vertex="1">
                    <mxGeometry x="1090" y="630" width="120" height="60" as="geometry"/>
                </mxCell>
                <mxCell id="h37pQN8pNh0YvQ1FQnEW-76" value="PROTECTED URBAN PLANET&lt;br&gt;(converting data sets)" style="rounded=1;whiteSpace=wrap;html=1;fontSize=17;fillColor=#d5e8d4;strokeColor=#82b366;" parent="1" vertex="1">
                    <mxGeometry x="1920" y="145" width="190" height="60" as="geometry"/>
                </mxCell>
                <mxCell id="h37pQN8pNh0YvQ1FQnEW-78" value="UNESCO&lt;br&gt;(downloaded)" style="rounded=1;whiteSpace=wrap;html=1;fontSize=17;fillColor=#d5e8d4;strokeColor=#82b366;" parent="1" vertex="1">
                    <mxGeometry x="1920" y="395" width="200" height="60" as="geometry"/>
                </mxCell>
                <mxCell id="h37pQN8pNh0YvQ1FQnEW-80" value="DLR AND ESA&lt;br&gt;(downloadable)" style="rounded=1;whiteSpace=wrap;html=1;fontSize=17;fillColor=#d5e8d4;strokeColor=#82b366;" parent="1" vertex="1">
                    <mxGeometry x="1920" y="500" width="200" height="60" as="geometry"/>
                </mxCell>
                <mxCell id="h37pQN8pNh0YvQ1FQnEW-77" value="PROTHEGO&lt;br&gt;(Unable to assist)" style="rounded=1;whiteSpace=wrap;html=1;fontSize=17;fillColor=#f8cecc;strokeColor=#b85450;" parent="1" vertex="1">
                    <mxGeometry x="1920" y="230" width="200" height="60" as="geometry"/>
                </mxCell>
                <mxCell id="h37pQN8pNh0YvQ1FQnEW-86" value="" style="edgeStyle=orthogonalEdgeStyle;rounded=0;orthogonalLoop=1;jettySize=auto;html=1;fontSize=17;endArrow=none;" parent="1" source="h37pQN8pNh0YvQ1FQnEW-50" target="h37pQN8pNh0YvQ1FQnEW-77" edge="1">
                    <mxGeometry relative="1" as="geometry">
                        <mxPoint x="1800" y="260.0769230769231" as="sourcePoint"/>
                        <mxPoint x="2015.0769230769229" y="180" as="targetPoint"/>
                    </mxGeometry>
                </mxCell>
                <mxCell id="h37pQN8pNh0YvQ1FQnEW-88" value="RESCULT&lt;br&gt;(waiting for response)" style="rounded=1;whiteSpace=wrap;html=1;fontSize=17;" parent="1" vertex="1">
                    <mxGeometry x="1920" y="310" width="205" height="60" as="geometry"/>
                </mxCell>
                <mxCell id="h37pQN8pNh0YvQ1FQnEW-89" value="WEEK 13" style="rounded=0;whiteSpace=wrap;html=1;shadow=0;glass=0;sketch=1;fontSize=22;fillColor=default;gradientColor=#ffffff;fontStyle=0" parent="1" vertex="1">
                    <mxGeometry x="2050" y="890" width="120" height="60" as="geometry"/>
                </mxCell>
                <mxCell id="h37pQN8pNh0YvQ1FQnEW-90" value="WEEK 12" style="rounded=0;whiteSpace=wrap;html=1;shadow=0;glass=0;sketch=1;fontSize=22;fillColor=default;gradientColor=#ffffff;fontStyle=0" parent="1" vertex="1">
                    <mxGeometry x="1930" y="890" width="120" height="60" as="geometry"/>
                </mxCell>
                <mxCell id="h37pQN8pNh0YvQ1FQnEW-91" value="WEEK 1/52&lt;br style=&quot;font-size: 16px&quot;&gt;(15th January 2022)" style="rounded=0;whiteSpace=wrap;html=1;shadow=0;glass=0;sketch=1;fontSize=16;fillColor=#f8cecc;fontStyle=0;strokeColor=#b85450;" parent="1" vertex="1">
                    <mxGeometry x="610" y="890" width="120" height="60" as="geometry"/>
                </mxCell>
                <mxCell id="h37pQN8pNh0YvQ1FQnEW-92" value="WEEK 2" style="rounded=0;whiteSpace=wrap;html=1;shadow=0;glass=0;sketch=1;fontSize=22;fillColor=default;gradientColor=#ffffff;fontStyle=0" parent="1" vertex="1">
                    <mxGeometry x="730" y="890" width="120" height="60" as="geometry"/>
                </mxCell>
                <mxCell id="h37pQN8pNh0YvQ1FQnEW-93" value="TIME FRAME&amp;nbsp;" style="rounded=0;whiteSpace=wrap;html=1;shadow=0;glass=0;sketch=1;fontSize=17;fillColor=default;gradientColor=#ffffff;" parent="1" vertex="1">
                    <mxGeometry x="-350" y="770" width="120" height="60" as="geometry"/>
                </mxCell>
                <mxCell id="h37pQN8pNh0YvQ1FQnEW-94" value="PUBLISHING" style="rounded=0;whiteSpace=wrap;html=1;shadow=0;glass=0;sketch=1;fontSize=17;fillColor=default;gradientColor=#ffffff;" parent="1" vertex="1">
                    <mxGeometry x="-160" y="770" width="120" height="60" as="geometry"/>
                </mxCell>
                <mxCell id="h37pQN8pNh0YvQ1FQnEW-96" value="WEEK 3/52&lt;br style=&quot;font-size: 22px&quot;&gt;(February)" style="rounded=0;whiteSpace=wrap;html=1;shadow=0;glass=0;sketch=1;fontSize=22;fillColor=#f8cecc;fontStyle=0;strokeColor=#b85450;" parent="1" vertex="1">
                    <mxGeometry x="850" y="890" width="120" height="60" as="geometry"/>
                </mxCell>
                <mxCell id="h37pQN8pNh0YvQ1FQnEW-97" value="WEEK 4" style="rounded=0;whiteSpace=wrap;html=1;shadow=0;glass=0;sketch=1;fontSize=22;fillColor=default;gradientColor=#ffffff;fontStyle=0" parent="1" vertex="1">
                    <mxGeometry x="970" y="890" width="120" height="60" as="geometry"/>
                </mxCell>
                <mxCell id="h37pQN8pNh0YvQ1FQnEW-98" value="WEEK 5" style="rounded=0;whiteSpace=wrap;html=1;shadow=0;glass=0;sketch=1;fontSize=22;fillColor=default;gradientColor=#ffffff;fontStyle=0" parent="1" vertex="1">
                    <mxGeometry x="1090" y="890" width="120" height="60" as="geometry"/>
                </mxCell>
                <mxCell id="h37pQN8pNh0YvQ1FQnEW-99" value="WEEK 6" style="rounded=0;whiteSpace=wrap;html=1;shadow=0;glass=0;sketch=1;fontSize=22;fillColor=default;gradientColor=#ffffff;fontStyle=0" parent="1" vertex="1">
                    <mxGeometry x="1210" y="890" width="120" height="60" as="geometry"/>
                </mxCell>
                <mxCell id="h37pQN8pNh0YvQ1FQnEW-100" value="&lt;font style=&quot;font-size: 19px&quot;&gt;WEEK 7/52&lt;br&gt;(March 2022)&lt;/font&gt;" style="rounded=0;whiteSpace=wrap;html=1;shadow=0;glass=0;sketch=1;fontSize=22;fillColor=#f8cecc;fontStyle=0;strokeColor=#b85450;" parent="1" vertex="1">
                    <mxGeometry x="1330" y="890" width="130" height="60" as="geometry"/>
                </mxCell>
                <mxCell id="h37pQN8pNh0YvQ1FQnEW-101" value="WEEK 8" style="rounded=0;whiteSpace=wrap;html=1;shadow=0;glass=0;sketch=1;fontSize=22;fillColor=default;gradientColor=#ffffff;fontStyle=0" parent="1" vertex="1">
                    <mxGeometry x="1450" y="890" width="120" height="60" as="geometry"/>
                </mxCell>
                <mxCell id="h37pQN8pNh0YvQ1FQnEW-102" value="WEEK 9" style="rounded=0;whiteSpace=wrap;html=1;shadow=0;glass=0;sketch=1;fontSize=22;fillColor=default;gradientColor=#ffffff;fontStyle=0" parent="1" vertex="1">
                    <mxGeometry x="1570" y="890" width="120" height="60" as="geometry"/>
                </mxCell>
                <mxCell id="h37pQN8pNh0YvQ1FQnEW-103" value="WEEK 10" style="rounded=0;whiteSpace=wrap;html=1;shadow=0;glass=0;sketch=1;fontSize=22;fillColor=default;gradientColor=#ffffff;fontStyle=0" parent="1" vertex="1">
                    <mxGeometry x="1690" y="890" width="120" height="60" as="geometry"/>
                </mxCell>
                <mxCell id="ARwdgaC7LOGrpXBBX0hC-1" value="Literature review&lt;br&gt;(Continuous)" style="rounded=0;whiteSpace=wrap;html=1;fontSize=22;fontStyle=0" parent="1" vertex="1">
                    <mxGeometry x="740" y="1040" width="1030" height="60" as="geometry"/>
                </mxCell>
                <mxCell id="isc2ANFh7UeVf0TnL6wv-1" value="General: Logistical preparation" style="rounded=0;whiteSpace=wrap;html=1;fontSize=22;fontStyle=0" parent="1" vertex="1">
                    <mxGeometry x="610" y="980" width="480" height="60" as="geometry"/>
                </mxCell>
                <mxCell id="isc2ANFh7UeVf0TnL6wv-2" value="Conceptualisation: Research problem and research questions, Creating working document" style="rounded=0;whiteSpace=wrap;html=1;fontSize=22;fontStyle=0" parent="1" vertex="1">
                    <mxGeometry x="880" y="1100" width="890" height="60" as="geometry"/>
                </mxCell>
                <mxCell id="isc2ANFh7UeVf0TnL6wv-3" value="week 11/52&lt;br style=&quot;font-size: 22px&quot;&gt;(April 2022)" style="rounded=0;whiteSpace=wrap;html=1;fontSize=22;fontStyle=0;fillColor=#f8cecc;strokeColor=#b85450;sketch=1;" parent="1" vertex="1">
                    <mxGeometry x="1810" y="890" width="120" height="60" as="geometry"/>
                </mxCell>
                <mxCell id="isc2ANFh7UeVf0TnL6wv-5" value="WEEK 14" style="rounded=0;whiteSpace=wrap;html=1;fontSize=22;fontStyle=0;fillColor=#f8cecc;strokeColor=#b85450;sketch=0;" parent="1" vertex="1">
                    <mxGeometry x="2160" y="890" width="120" height="60" as="geometry"/>
                </mxCell>
                <mxCell id="isc2ANFh7UeVf0TnL6wv-7" value="Total weeks 52" style="rounded=0;whiteSpace=wrap;html=1;fontSize=22;fontStyle=0" parent="1" vertex="1">
                    <mxGeometry x="490" y="890" width="120" height="60" as="geometry"/>
                </mxCell>
                <mxCell id="isc2ANFh7UeVf0TnL6wv-8" value="Task 1" style="rounded=0;whiteSpace=wrap;html=1;fontSize=22;fontStyle=0" parent="1" vertex="1">
                    <mxGeometry x="490" y="980" width="120" height="60" as="geometry"/>
                </mxCell>
                <mxCell id="isc2ANFh7UeVf0TnL6wv-29" style="edgeStyle=orthogonalEdgeStyle;rounded=0;orthogonalLoop=1;jettySize=auto;html=1;entryX=0;entryY=0.5;entryDx=0;entryDy=0;fontSize=16;" parent="1" source="isc2ANFh7UeVf0TnL6wv-9" target="ARwdgaC7LOGrpXBBX0hC-1" edge="1">
                    <mxGeometry relative="1" as="geometry"/>
                </mxCell>
                <mxCell id="isc2ANFh7UeVf0TnL6wv-9" value="Task 2" style="rounded=0;whiteSpace=wrap;html=1;fontSize=22;fontStyle=0" parent="1" vertex="1">
                    <mxGeometry x="490" y="1040" width="120" height="60" as="geometry"/>
                </mxCell>
                <mxCell id="isc2ANFh7UeVf0TnL6wv-28" style="edgeStyle=orthogonalEdgeStyle;rounded=0;orthogonalLoop=1;jettySize=auto;html=1;entryX=0;entryY=0.5;entryDx=0;entryDy=0;fontSize=16;" parent="1" source="isc2ANFh7UeVf0TnL6wv-10" target="isc2ANFh7UeVf0TnL6wv-2" edge="1">
                    <mxGeometry relative="1" as="geometry"/>
                </mxCell>
                <mxCell id="isc2ANFh7UeVf0TnL6wv-10" value="Task 3" style="rounded=0;whiteSpace=wrap;html=1;fontSize=22;fontStyle=0" parent="1" vertex="1">
                    <mxGeometry x="490" y="1100" width="120" height="60" as="geometry"/>
                </mxCell>
                <mxCell id="isc2ANFh7UeVf0TnL6wv-11" value="Data assessment and collection. (Research question A and B)" style="rounded=0;whiteSpace=wrap;html=1;fontSize=22;fontStyle=0" parent="1" vertex="1">
                    <mxGeometry x="1570" y="1160" width="590" height="60" as="geometry"/>
                </mxCell>
                <mxCell id="isc2ANFh7UeVf0TnL6wv-27" style="edgeStyle=orthogonalEdgeStyle;rounded=0;orthogonalLoop=1;jettySize=auto;html=1;entryX=0;entryY=0.5;entryDx=0;entryDy=0;fontSize=16;" parent="1" source="isc2ANFh7UeVf0TnL6wv-16" target="isc2ANFh7UeVf0TnL6wv-11" edge="1">
                    <mxGeometry relative="1" as="geometry"/>
                </mxCell>
                <mxCell id="isc2ANFh7UeVf0TnL6wv-16" value="Task 4" style="rounded=0;whiteSpace=wrap;html=1;fontSize=22;fontStyle=0" parent="1" vertex="1">
                    <mxGeometry x="490" y="1160" width="120" height="60" as="geometry"/>
                </mxCell>
                <mxCell id="isc2ANFh7UeVf0TnL6wv-17" value="WEEK 15&lt;br&gt;(May 2022)" style="rounded=0;whiteSpace=wrap;html=1;fontSize=22;fontStyle=0;fillColor=#f8cecc;strokeColor=#b85450;" parent="1" vertex="1">
                    <mxGeometry x="2280" y="890" width="120" height="60" as="geometry"/>
                </mxCell>
                <mxCell id="isc2ANFh7UeVf0TnL6wv-18" value="WEEK 16" style="rounded=0;whiteSpace=wrap;html=1;fontSize=22;fontStyle=0;sketch=0;fillColor=none;strokeColor=#b85450;" parent="1" vertex="1">
                    <mxGeometry x="2400" y="890" width="120" height="60" as="geometry"/>
                </mxCell>
                <mxCell id="isc2ANFh7UeVf0TnL6wv-21" value="WEEK 17" style="rounded=0;whiteSpace=wrap;html=1;fontSize=22;fontStyle=0" parent="1" vertex="1">
                    <mxGeometry x="2520" y="890" width="110" height="60" as="geometry"/>
                </mxCell>
                <mxCell id="isc2ANFh7UeVf0TnL6wv-23" value="Vacation" style="rounded=0;whiteSpace=wrap;html=1;fontSize=22;fontStyle=0;fillColor=#f8cecc;strokeColor=#b85450;" parent="1" vertex="1">
                    <mxGeometry x="2160" y="950" width="240" height="60" as="geometry"/>
                </mxCell>
                <mxCell id="isc2ANFh7UeVf0TnL6wv-37" style="edgeStyle=orthogonalEdgeStyle;rounded=0;orthogonalLoop=1;jettySize=auto;html=1;entryX=0;entryY=0.5;entryDx=0;entryDy=0;fontSize=16;" parent="1" source="isc2ANFh7UeVf0TnL6wv-26" target="isc2ANFh7UeVf0TnL6wv-36" edge="1">
                    <mxGeometry relative="1" as="geometry"/>
                </mxCell>
                <mxCell id="isc2ANFh7UeVf0TnL6wv-26" value="Task 5" style="rounded=0;whiteSpace=wrap;html=1;fontSize=22;fontStyle=0" parent="1" vertex="1">
                    <mxGeometry x="490" y="1220" width="120" height="60" as="geometry"/>
                </mxCell>
                <mxCell id="isc2ANFh7UeVf0TnL6wv-38" style="edgeStyle=orthogonalEdgeStyle;rounded=0;orthogonalLoop=1;jettySize=auto;html=1;fontSize=16;" parent="1" source="isc2ANFh7UeVf0TnL6wv-32" target="isc2ANFh7UeVf0TnL6wv-35" edge="1">
                    <mxGeometry relative="1" as="geometry">
                        <mxPoint x="1720" y="1310" as="targetPoint"/>
                    </mxGeometry>
                </mxCell>
                <mxCell id="isc2ANFh7UeVf0TnL6wv-32" value="Task 7" style="rounded=0;whiteSpace=wrap;html=1;fontSize=22;fontStyle=0" parent="1" vertex="1">
                    <mxGeometry x="490" y="1280" width="120" height="60" as="geometry"/>
                </mxCell>
                <mxCell id="isc2ANFh7UeVf0TnL6wv-33" value="Task 9" style="rounded=0;whiteSpace=wrap;html=1;fontSize=22;fontStyle=0" parent="1" vertex="1">
                    <mxGeometry x="490" y="1400" width="120" height="60" as="geometry"/>
                </mxCell>
                <mxCell id="isc2ANFh7UeVf0TnL6wv-40" style="edgeStyle=orthogonalEdgeStyle;rounded=0;orthogonalLoop=1;jettySize=auto;html=1;fontSize=16;" parent="1" source="isc2ANFh7UeVf0TnL6wv-34" target="isc2ANFh7UeVf0TnL6wv-39" edge="1">
                    <mxGeometry relative="1" as="geometry"/>
                </mxCell>
                <mxCell id="isc2ANFh7UeVf0TnL6wv-34" value="Task 8" style="rounded=0;whiteSpace=wrap;html=1;fontSize=22;fontStyle=0" parent="1" vertex="1">
                    <mxGeometry x="490" y="1340" width="120" height="60" as="geometry"/>
                </mxCell>
                <mxCell id="isc2ANFh7UeVf0TnL6wv-35" value="Data analysis&amp;nbsp; with DLR (Duration Depends on DLR)&lt;br&gt;Research objective 1.C, 2A and 2.B)" style="rounded=0;whiteSpace=wrap;html=1;fontSize=22;fontStyle=0" parent="1" vertex="1">
                    <mxGeometry x="2400" y="1230" width="360" height="110" as="geometry"/>
                </mxCell>
                <mxCell id="isc2ANFh7UeVf0TnL6wv-36" value="Determination of analysis for DLR" style="rounded=0;whiteSpace=wrap;html=1;fontSize=22;fontStyle=0" parent="1" vertex="1">
                    <mxGeometry x="1920" y="1220" width="240" height="60" as="geometry"/>
                </mxCell>
                <mxCell id="isc2ANFh7UeVf0TnL6wv-39" value="Interpretation of Results" style="rounded=0;whiteSpace=wrap;html=1;fontSize=22;fontStyle=0;sketch=1;fillColor=#a20025;fontColor=#ffffff;strokeColor=#6F0000;" parent="1" vertex="1">
                    <mxGeometry x="2400" y="1340" width="280" height="60" as="geometry"/>
                </mxCell>
                <mxCell id="isc2ANFh7UeVf0TnL6wv-42" value="WEEK 18" style="rounded=0;whiteSpace=wrap;html=1;fontSize=22;fontStyle=0" parent="1" vertex="1">
                    <mxGeometry x="2630" y="890" width="130" height="60" as="geometry"/>
                </mxCell>
                <mxCell id="isc2ANFh7UeVf0TnL6wv-44" value="Publication Consideration&lt;br&gt;Two Papers from the research question" style="rounded=0;whiteSpace=wrap;html=1;fontSize=22;fontStyle=0" parent="1" vertex="1">
                    <mxGeometry x="2400" y="1150" width="360" height="80" as="geometry"/>
                </mxCell>
                <mxCell id="isc2ANFh7UeVf0TnL6wv-46" value="" style="rounded=0;whiteSpace=wrap;html=1;sketch=0;fontSize=16;fillColor=none;" parent="1" vertex="1">
                    <mxGeometry x="-210" y="10" width="2360" height="80" as="geometry"/>
                </mxCell>
                <mxCell id="isc2ANFh7UeVf0TnL6wv-47" value="" style="rounded=0;whiteSpace=wrap;html=1;sketch=0;fontSize=16;fillColor=none;" parent="1" vertex="1">
                    <mxGeometry x="-210" y="100" width="120" height="190" as="geometry"/>
                </mxCell>
                <mxCell id="BjhbaZAjBU6-snFWnnkG-1" value="" style="shape=hexagon;perimeter=hexagonPerimeter2;whiteSpace=wrap;html=1;fixedSize=1;" parent="1" vertex="1">
                    <mxGeometry x="-690" y="1140" width="800" height="310" as="geometry"/>
                </mxCell>
                <mxCell id="BjhbaZAjBU6-snFWnnkG-2" value="" style="shape=cylinder3;whiteSpace=wrap;html=1;boundedLbl=1;backgroundOutline=1;size=15;" parent="1" vertex="1">
                    <mxGeometry x="2990" y="1720" width="60" height="80" as="geometry"/>
                </mxCell>
                <mxCell id="BjhbaZAjBU6-snFWnnkG-85" style="edgeStyle=orthogonalEdgeStyle;rounded=1;sketch=0;orthogonalLoop=1;jettySize=auto;html=1;fontSize=22;strokeWidth=4;fillColor=#f8cecc;strokeColor=#b85450;" parent="1" source="BjhbaZAjBU6-snFWnnkG-3" target="BjhbaZAjBU6-snFWnnkG-9" edge="1">
                    <mxGeometry relative="1" as="geometry">
                        <Array as="points">
                            <mxPoint x="1447.75" y="2480"/>
                            <mxPoint x="1107.75" y="2480"/>
                        </Array>
                    </mxGeometry>
                </mxCell>
                <mxCell id="BjhbaZAjBU6-snFWnnkG-86" style="edgeStyle=orthogonalEdgeStyle;rounded=1;sketch=0;orthogonalLoop=1;jettySize=auto;html=1;fontSize=22;strokeWidth=4;fillColor=#d5e8d4;strokeColor=#82b366;" parent="1" source="BjhbaZAjBU6-snFWnnkG-3" target="BjhbaZAjBU6-snFWnnkG-24" edge="1">
                    <mxGeometry relative="1" as="geometry">
                        <Array as="points">
                            <mxPoint x="1447.75" y="2480"/>
                            <mxPoint x="1922.75" y="2480"/>
                        </Array>
                    </mxGeometry>
                </mxCell>
                <mxCell id="BjhbaZAjBU6-snFWnnkG-87" style="edgeStyle=orthogonalEdgeStyle;rounded=1;sketch=0;orthogonalLoop=1;jettySize=auto;html=1;entryX=0.614;entryY=0.125;entryDx=0;entryDy=0;entryPerimeter=0;fontSize=22;strokeWidth=4;fillColor=#dae8fc;strokeColor=#6c8ebf;" parent="1" source="BjhbaZAjBU6-snFWnnkG-3" target="BjhbaZAjBU6-snFWnnkG-18" edge="1">
                    <mxGeometry relative="1" as="geometry"/>
                </mxCell>
                <mxCell id="BjhbaZAjBU6-snFWnnkG-88" style="edgeStyle=orthogonalEdgeStyle;rounded=1;sketch=0;orthogonalLoop=1;jettySize=auto;html=1;fontSize=22;strokeWidth=4;" parent="1" source="BjhbaZAjBU6-snFWnnkG-3" target="BjhbaZAjBU6-snFWnnkG-80" edge="1">
                    <mxGeometry relative="1" as="geometry"/>
                </mxCell>
                <mxCell id="BjhbaZAjBU6-snFWnnkG-3" value="Data" style="strokeWidth=2;html=1;shape=mxgraph.flowchart.multi-document;whiteSpace=wrap;fontSize=22;fillColor=#f5f5f5;strokeColor=#666666;fontColor=#333333;" parent="1" vertex="1">
                    <mxGeometry x="1352.75" y="2350" width="190" height="60" as="geometry"/>
                </mxCell>
                <mxCell id="BjhbaZAjBU6-snFWnnkG-4" value="" style="verticalLabelPosition=bottom;verticalAlign=top;html=1;shape=mxgraph.basic.smiley" parent="1" vertex="1">
                    <mxGeometry x="3150" y="1565" width="100" height="100" as="geometry"/>
                </mxCell>
                <mxCell id="BjhbaZAjBU6-snFWnnkG-6" value="BOUNDARY OF WH PROPERTIES" style="rounded=0;whiteSpace=wrap;html=1;fontSize=17;fillColor=#f8cecc;strokeColor=#b85450;perimeterSpacing=10;" parent="1" vertex="1">
                    <mxGeometry x="802.75" y="2570" width="260" height="60" as="geometry"/>
                </mxCell>
                <mxCell id="BjhbaZAjBU6-snFWnnkG-9" value="BUFFER ZONES" style="rounded=0;whiteSpace=wrap;html=1;fontSize=17;fillColor=#f8cecc;strokeColor=#b85450;perimeterSpacing=10;" parent="1" vertex="1">
                    <mxGeometry x="1022.75" y="2570" width="170" height="60" as="geometry"/>
                </mxCell>
                <mxCell id="BjhbaZAjBU6-snFWnnkG-12" value="WORLD HERITAGE CITIES" style="rounded=0;whiteSpace=wrap;html=1;fontSize=17;fillColor=#f8cecc;strokeColor=#b85450;perimeterSpacing=10;" parent="1" vertex="1">
                    <mxGeometry x="1192.75" y="2570" width="160" height="60" as="geometry"/>
                </mxCell>
                <mxCell id="BjhbaZAjBU6-snFWnnkG-18" value="NIGHTLIGHTS LAYER" style="rounded=0;whiteSpace=wrap;html=1;fontSize=17;fillColor=#dae8fc;strokeColor=#6c8ebf;perimeterSpacing=10;" parent="1" vertex="1">
                    <mxGeometry x="1352.75" y="2570" width="150" height="60" as="geometry"/>
                </mxCell>
                <mxCell id="BjhbaZAjBU6-snFWnnkG-19" value="1. SHAPE FILES&lt;br&gt;2.GEOJSON/JSON" style="rounded=1;whiteSpace=wrap;html=1;fontSize=17;fillColor=#f8cecc;strokeColor=#b85450;perimeterSpacing=10;sketch=1;" parent="1" vertex="1">
                    <mxGeometry x="1032.75" y="2630" width="160" height="60" as="geometry"/>
                </mxCell>
                <mxCell id="BjhbaZAjBU6-snFWnnkG-21" value="4.RASTER" style="rounded=1;whiteSpace=wrap;html=1;fontSize=17;fillColor=#dae8fc;strokeColor=#6c8ebf;perimeterSpacing=10;sketch=1;" parent="1" vertex="1">
                    <mxGeometry x="1432.75" y="2630" width="160" height="60" as="geometry"/>
                </mxCell>
                <mxCell id="BjhbaZAjBU6-snFWnnkG-22" value="3.CSV" style="rounded=1;whiteSpace=wrap;html=1;fontSize=17;fillColor=#d5e8d4;strokeColor=#82b366;perimeterSpacing=10;sketch=1;" parent="1" vertex="1">
                    <mxGeometry x="1842.25" y="2630" width="160" height="60" as="geometry"/>
                </mxCell>
                <mxCell id="BjhbaZAjBU6-snFWnnkG-24" value="WORLD HERITAGE POINTS" style="rounded=0;whiteSpace=wrap;html=1;fontSize=17;fillColor=#d5e8d4;strokeColor=#82b366;perimeterSpacing=10;" parent="1" vertex="1">
                    <mxGeometry x="1831.75" y="2570" width="181" height="60" as="geometry"/>
                </mxCell>
                <mxCell id="BjhbaZAjBU6-snFWnnkG-65" style="edgeStyle=orthogonalEdgeStyle;rounded=1;sketch=0;orthogonalLoop=1;jettySize=auto;html=1;fontSize=22;strokeWidth=4;" parent="1" source="BjhbaZAjBU6-snFWnnkG-27" target="BjhbaZAjBU6-snFWnnkG-29" edge="1">
                    <mxGeometry relative="1" as="geometry"/>
                </mxCell>
                <mxCell id="BjhbaZAjBU6-snFWnnkG-70" style="edgeStyle=orthogonalEdgeStyle;rounded=1;sketch=0;orthogonalLoop=1;jettySize=auto;html=1;fontSize=22;strokeWidth=4;entryX=1;entryY=0.5;entryDx=0;entryDy=0;fillColor=#dae8fc;strokeColor=#6c8ebf;" parent="1" source="BjhbaZAjBU6-snFWnnkG-27" target="BjhbaZAjBU6-snFWnnkG-32" edge="1">
                    <mxGeometry relative="1" as="geometry"/>
                </mxCell>
                <mxCell id="BjhbaZAjBU6-snFWnnkG-73" style="edgeStyle=orthogonalEdgeStyle;rounded=1;sketch=0;orthogonalLoop=1;jettySize=auto;html=1;fontSize=22;strokeWidth=4;fillColor=#dae8fc;strokeColor=#6c8ebf;" parent="1" source="BjhbaZAjBU6-snFWnnkG-27" target="BjhbaZAjBU6-snFWnnkG-72" edge="1">
                    <mxGeometry relative="1" as="geometry"/>
                </mxCell>
                <mxCell id="BjhbaZAjBU6-snFWnnkG-27" value="LAND COVER AND LAND USE CHANGE DETECTION" style="rounded=0;whiteSpace=wrap;html=1;fontSize=17;fillColor=#dae8fc;strokeColor=#6c8ebf;fontStyle=1;" parent="1" vertex="1">
                    <mxGeometry x="946.5" y="2230" width="247.5" height="60" as="geometry"/>
                </mxCell>
                <mxCell id="BjhbaZAjBU6-snFWnnkG-78" style="edgeStyle=orthogonalEdgeStyle;rounded=1;sketch=0;orthogonalLoop=1;jettySize=auto;html=1;fontSize=22;strokeWidth=4;fillColor=#dae8fc;strokeColor=#6c8ebf;" parent="1" source="BjhbaZAjBU6-snFWnnkG-29" target="BjhbaZAjBU6-snFWnnkG-35" edge="1">
                    <mxGeometry relative="1" as="geometry"/>
                </mxCell>
                <mxCell id="BjhbaZAjBU6-snFWnnkG-79" style="edgeStyle=orthogonalEdgeStyle;rounded=1;sketch=0;orthogonalLoop=1;jettySize=auto;html=1;fontSize=22;strokeWidth=4;fillColor=#dae8fc;strokeColor=#6c8ebf;" parent="1" source="BjhbaZAjBU6-snFWnnkG-29" target="BjhbaZAjBU6-snFWnnkG-77" edge="1">
                    <mxGeometry relative="1" as="geometry"/>
                </mxCell>
                <mxCell id="BjhbaZAjBU6-snFWnnkG-29" value="STATISTICAL ANALYSIS" style="rounded=0;whiteSpace=wrap;html=1;fontSize=17;fillColor=#dae8fc;strokeColor=#6c8ebf;fontStyle=1" parent="1" vertex="1">
                    <mxGeometry x="940.25" y="2390" width="260" height="60" as="geometry"/>
                </mxCell>
                <mxCell id="BjhbaZAjBU6-snFWnnkG-67" style="edgeStyle=orthogonalEdgeStyle;rounded=1;sketch=0;orthogonalLoop=1;jettySize=auto;html=1;fontSize=22;strokeWidth=4;" parent="1" source="BjhbaZAjBU6-snFWnnkG-31" target="BjhbaZAjBU6-snFWnnkG-66" edge="1">
                    <mxGeometry relative="1" as="geometry"/>
                </mxCell>
                <mxCell id="BjhbaZAjBU6-snFWnnkG-68" style="edgeStyle=orthogonalEdgeStyle;rounded=1;sketch=0;orthogonalLoop=1;jettySize=auto;html=1;fontSize=22;strokeWidth=4;" parent="1" source="BjhbaZAjBU6-snFWnnkG-31" target="BjhbaZAjBU6-snFWnnkG-27" edge="1">
                    <mxGeometry relative="1" as="geometry"/>
                </mxCell>
                <mxCell id="BjhbaZAjBU6-snFWnnkG-69" style="edgeStyle=orthogonalEdgeStyle;rounded=1;sketch=0;orthogonalLoop=1;jettySize=auto;html=1;entryX=1;entryY=0.5;entryDx=0;entryDy=0;fontSize=22;strokeWidth=4;" parent="1" source="BjhbaZAjBU6-snFWnnkG-31" target="BjhbaZAjBU6-snFWnnkG-33" edge="1">
                    <mxGeometry relative="1" as="geometry"/>
                </mxCell>
                <mxCell id="BjhbaZAjBU6-snFWnnkG-31" value="SPATIAL DATA CONVERSION/TRANSLATION" style="rounded=0;whiteSpace=wrap;html=1;fontSize=17;fillColor=#f8cecc;strokeColor=#b85450;fontStyle=1" parent="1" vertex="1">
                    <mxGeometry x="940.25" y="2030" width="260" height="60" as="geometry"/>
                </mxCell>
                <mxCell id="BjhbaZAjBU6-snFWnnkG-32" value="QGIS/ArcGIS" style="rounded=0;whiteSpace=wrap;html=1;fontSize=17;sketch=1;fillColor=#dae8fc;strokeColor=#6c8ebf;" parent="1" vertex="1">
                    <mxGeometry x="682.75" y="2160" width="140" height="60" as="geometry"/>
                </mxCell>
                <mxCell id="BjhbaZAjBU6-snFWnnkG-33" value="FME" style="rounded=0;whiteSpace=wrap;html=1;fontSize=17;sketch=1;fillColor=#f8cecc;strokeColor=#b85450;" parent="1" vertex="1">
                    <mxGeometry x="682.75" y="2010" width="140" height="60" as="geometry"/>
                </mxCell>
                <mxCell id="BjhbaZAjBU6-snFWnnkG-35" value="SPSS/Excel" style="rounded=0;whiteSpace=wrap;html=1;fontSize=17;sketch=1;fillColor=#dae8fc;perimeterSpacing=10;strokeColor=#6c8ebf;" parent="1" vertex="1">
                    <mxGeometry x="682.75" y="2380" width="140" height="60" as="geometry"/>
                </mxCell>
                <mxCell id="BjhbaZAjBU6-snFWnnkG-16" value="WORLD HUMAN SETTLEMENT LAYER" style="rounded=0;whiteSpace=wrap;html=1;fontSize=17;fillColor=#dae8fc;strokeColor=#6c8ebf;perimeterSpacing=10;" parent="1" vertex="1">
                    <mxGeometry x="1502.75" y="2570" width="170" height="60" as="geometry"/>
                </mxCell>
                <mxCell id="BjhbaZAjBU6-snFWnnkG-14" value="GLOBAL URBAN FOOT PRINT" style="rounded=0;whiteSpace=wrap;html=1;fontSize=17;fillColor=#dae8fc;strokeColor=#6c8ebf;perimeterSpacing=10;" parent="1" vertex="1">
                    <mxGeometry x="1662.75" y="2570" width="170" height="60" as="geometry"/>
                </mxCell>
                <mxCell id="BjhbaZAjBU6-snFWnnkG-66" value="Reference system and format" style="rounded=1;whiteSpace=wrap;html=1;sketch=1;fontSize=22;fillColor=#f8cecc;strokeColor=#b85450;" parent="1" vertex="1">
                    <mxGeometry x="600" y="2070" width="272.75" height="80" as="geometry"/>
                </mxCell>
                <mxCell id="BjhbaZAjBU6-snFWnnkG-72" value="Comparing land cover and land-use type change between different spatial temporal scales" style="rounded=1;whiteSpace=wrap;html=1;sketch=1;fontSize=22;fillColor=#dae8fc;strokeColor=#6c8ebf;" parent="1" vertex="1">
                    <mxGeometry x="600" y="2220" width="265.25" height="140" as="geometry"/>
                </mxCell>
                <mxCell id="BjhbaZAjBU6-snFWnnkG-77" value="To assess the amount and rate of land cover and land-use type change in spatial temporal scale" style="rounded=1;whiteSpace=wrap;html=1;sketch=1;fontSize=22;fillColor=#dae8fc;strokeColor=#6c8ebf;" parent="1" vertex="1">
                    <mxGeometry x="602.75" y="2440" width="260" height="120" as="geometry"/>
                </mxCell>
                <mxCell id="BjhbaZAjBU6-snFWnnkG-81" style="edgeStyle=orthogonalEdgeStyle;rounded=1;sketch=0;orthogonalLoop=1;jettySize=auto;html=1;entryX=1;entryY=0.75;entryDx=0;entryDy=0;fontSize=22;strokeWidth=4;fillColor=#f8cecc;strokeColor=#b85450;" parent="1" source="BjhbaZAjBU6-snFWnnkG-80" target="BjhbaZAjBU6-snFWnnkG-31" edge="1">
                    <mxGeometry relative="1" as="geometry"/>
                </mxCell>
                <mxCell id="BjhbaZAjBU6-snFWnnkG-82" style="edgeStyle=orthogonalEdgeStyle;rounded=1;sketch=0;orthogonalLoop=1;jettySize=auto;html=1;entryX=1;entryY=0.5;entryDx=0;entryDy=0;fontSize=22;strokeWidth=4;fillColor=#dae8fc;strokeColor=#6c8ebf;" parent="1" source="BjhbaZAjBU6-snFWnnkG-80" target="BjhbaZAjBU6-snFWnnkG-27" edge="1">
                    <mxGeometry relative="1" as="geometry"/>
                </mxCell>
                <mxCell id="BjhbaZAjBU6-snFWnnkG-83" style="edgeStyle=orthogonalEdgeStyle;rounded=1;sketch=0;orthogonalLoop=1;jettySize=auto;html=1;entryX=1;entryY=0.5;entryDx=0;entryDy=0;fontSize=22;strokeWidth=4;fillColor=#dae8fc;strokeColor=#6c8ebf;" parent="1" source="BjhbaZAjBU6-snFWnnkG-80" target="BjhbaZAjBU6-snFWnnkG-29" edge="1">
                    <mxGeometry relative="1" as="geometry"/>
                </mxCell>
                <mxCell id="BjhbaZAjBU6-snFWnnkG-80" value="Methods" style="shape=internalStorage;whiteSpace=wrap;html=1;backgroundOutline=1;sketch=0;fontSize=23;fillColor=#a20025;fontStyle=1;fontColor=#ffffff;strokeColor=#6F0000;" parent="1" vertex="1">
                    <mxGeometry x="1352.75" y="2125" width="190" height="110" as="geometry"/>
                </mxCell>
                <mxCell id="BjhbaZAjBU6-snFWnnkG-92" style="edgeStyle=orthogonalEdgeStyle;rounded=1;sketch=0;orthogonalLoop=1;jettySize=auto;html=1;fontSize=22;strokeWidth=4;" parent="1" source="BjhbaZAjBU6-snFWnnkG-90" target="BjhbaZAjBU6-snFWnnkG-3" edge="1">
                    <mxGeometry relative="1" as="geometry"/>
                </mxCell>
                <mxCell id="BjhbaZAjBU6-snFWnnkG-90" value="Data Sources" style="shape=cylinder3;whiteSpace=wrap;html=1;boundedLbl=1;backgroundOutline=1;size=15;sketch=1;fontSize=22;fillColor=#B3B3B3;fontColor=#333333;strokeColor=#666666;" parent="1" vertex="1">
                    <mxGeometry x="1592.75" y="2210" width="160" height="140" as="geometry"/>
                </mxCell>
                <mxCell id="BjhbaZAjBU6-snFWnnkG-98" style="edgeStyle=orthogonalEdgeStyle;rounded=1;sketch=0;orthogonalLoop=1;jettySize=auto;html=1;fontSize=22;strokeWidth=4;fillColor=#f8cecc;strokeColor=#b85450;" parent="1" source="BjhbaZAjBU6-snFWnnkG-93" target="BjhbaZAjBU6-snFWnnkG-90" edge="1">
                    <mxGeometry relative="1" as="geometry"/>
                </mxCell>
                <mxCell id="BjhbaZAjBU6-snFWnnkG-93" value="PROTECTED URBAN PLANET&lt;br&gt;(converting data sets)" style="rounded=1;whiteSpace=wrap;html=1;fontSize=17;fillColor=#f8cecc;strokeColor=#b85450;" parent="1" vertex="1">
                    <mxGeometry x="1842.25" y="2025" width="200.5" height="60" as="geometry"/>
                </mxCell>
                <mxCell id="BjhbaZAjBU6-snFWnnkG-102" style="edgeStyle=orthogonalEdgeStyle;rounded=1;sketch=0;orthogonalLoop=1;jettySize=auto;html=1;entryX=0.5;entryY=1;entryDx=0;entryDy=0;entryPerimeter=0;fontSize=22;strokeWidth=4;fillColor=#d5e8d4;strokeColor=#82b366;" parent="1" source="BjhbaZAjBU6-snFWnnkG-94" target="BjhbaZAjBU6-snFWnnkG-90" edge="1">
                    <mxGeometry relative="1" as="geometry"/>
                </mxCell>
                <mxCell id="BjhbaZAjBU6-snFWnnkG-94" value="UNESCO&lt;br&gt;(downloaded)" style="rounded=1;whiteSpace=wrap;html=1;fontSize=17;fillColor=#d5e8d4;strokeColor=#82b366;" parent="1" vertex="1">
                    <mxGeometry x="1842.25" y="2370" width="200" height="60" as="geometry"/>
                </mxCell>
                <mxCell id="BjhbaZAjBU6-snFWnnkG-101" style="edgeStyle=orthogonalEdgeStyle;rounded=1;sketch=0;orthogonalLoop=1;jettySize=auto;html=1;fontSize=22;strokeWidth=4;fillColor=#dae8fc;strokeColor=#6c8ebf;" parent="1" source="BjhbaZAjBU6-snFWnnkG-95" target="BjhbaZAjBU6-snFWnnkG-90" edge="1">
                    <mxGeometry relative="1" as="geometry"/>
                </mxCell>
                <mxCell id="BjhbaZAjBU6-snFWnnkG-95" value="DLR AND ESA&lt;br&gt;(downloadable)" style="rounded=1;whiteSpace=wrap;html=1;fontSize=17;fillColor=#dae8fc;strokeColor=#6c8ebf;" parent="1" vertex="1">
                    <mxGeometry x="1842.25" y="2280" width="200" height="60" as="geometry"/>
                </mxCell>
                <mxCell id="BjhbaZAjBU6-snFWnnkG-99" style="edgeStyle=orthogonalEdgeStyle;rounded=1;sketch=0;orthogonalLoop=1;jettySize=auto;html=1;entryX=0.5;entryY=0;entryDx=0;entryDy=0;entryPerimeter=0;fontSize=22;strokeWidth=4;fillColor=#f8cecc;strokeColor=#b85450;" parent="1" source="BjhbaZAjBU6-snFWnnkG-96" target="BjhbaZAjBU6-snFWnnkG-90" edge="1">
                    <mxGeometry relative="1" as="geometry"/>
                </mxCell>
                <mxCell id="BjhbaZAjBU6-snFWnnkG-96" value="PROTHEGO&lt;br&gt;(Unable to assist)" style="rounded=1;whiteSpace=wrap;html=1;fontSize=17;fillColor=#f8cecc;strokeColor=#b85450;" parent="1" vertex="1">
                    <mxGeometry x="1842.25" y="2110" width="200" height="60" as="geometry"/>
                </mxCell>
                <mxCell id="BjhbaZAjBU6-snFWnnkG-100" style="edgeStyle=orthogonalEdgeStyle;rounded=1;sketch=0;orthogonalLoop=1;jettySize=auto;html=1;entryX=0.5;entryY=0;entryDx=0;entryDy=0;entryPerimeter=0;fontSize=22;strokeWidth=4;fillColor=#f8cecc;strokeColor=#b85450;" parent="1" source="BjhbaZAjBU6-snFWnnkG-97" target="BjhbaZAjBU6-snFWnnkG-90" edge="1">
                    <mxGeometry relative="1" as="geometry"/>
                </mxCell>
                <mxCell id="BjhbaZAjBU6-snFWnnkG-97" value="RESCULT&lt;br&gt;(waiting for response)" style="rounded=1;whiteSpace=wrap;html=1;fontSize=17;fillColor=#f8cecc;strokeColor=#b85450;" parent="1" vertex="1">
                    <mxGeometry x="1842.25" y="2190" width="205" height="60" as="geometry"/>
                </mxCell>
                <mxCell id="BjhbaZAjBU6-snFWnnkG-208" style="edgeStyle=entityRelationEdgeStyle;sketch=0;orthogonalLoop=1;jettySize=auto;html=1;fontSize=22;strokeWidth=4;curved=1;entryX=0.5;entryY=0;entryDx=0;entryDy=0;fillColor=#f8cecc;strokeColor=#b85450;exitX=0.841;exitY=0.996;exitDx=0;exitDy=0;exitPerimeter=0;" parent="1" source="BjhbaZAjBU6-snFWnnkG-104" target="BjhbaZAjBU6-snFWnnkG-80" edge="1">
                    <mxGeometry relative="1" as="geometry">
                        <mxPoint x="1230" y="2001" as="sourcePoint"/>
                    </mxGeometry>
                </mxCell>
                <mxCell id="BjhbaZAjBU6-snFWnnkG-104" value="&lt;blockquote style=&quot;margin: 0 0 0 40px ; border: none ; padding: 0px&quot;&gt;&lt;blockquote style=&quot;margin: 0 0 0 40px ; border: none ; padding: 0px&quot;&gt;&lt;blockquote style=&quot;margin: 0 0 0 40px ; border: none ; padding: 0px&quot;&gt;&lt;div style=&quot;text-align: left&quot;&gt;&lt;b&gt;&lt;font style=&quot;font-size: 23px&quot;&gt;HOW URBAN IS WORLD HERITAGE?&lt;/font&gt;&lt;/b&gt;&lt;/div&gt;&lt;/blockquote&gt;&lt;/blockquote&gt;&lt;/blockquote&gt;&lt;ol&gt;&lt;li style=&quot;text-align: left&quot;&gt;&lt;span&gt;Collect and asses the quality of World Heritage&amp;nbsp;&lt;/span&gt;&lt;/li&gt;&lt;li style=&quot;text-align: left&quot;&gt;To transform spatial dat into shape files and raster files.&lt;/li&gt;&lt;li style=&quot;text-align: left&quot;&gt;To compare land-cover and Land-use&amp;nbsp; type change in world heritage properties.&amp;nbsp;&lt;/li&gt;&lt;/ol&gt;&lt;span style=&quot;font-size: 17px&quot;&gt;&lt;br&gt;&lt;/span&gt;" style="rounded=1;whiteSpace=wrap;html=1;sketch=0;fontSize=22;fillColor=#f8cecc;align=center;verticalAlign=top;labelPosition=center;verticalLabelPosition=middle;strokeColor=#b85450;" parent="1" vertex="1">
                    <mxGeometry x="595.6900000000002" y="1760" width="628.63" height="220" as="geometry"/>
                </mxCell>
                <mxCell id="BjhbaZAjBU6-snFWnnkG-209" style="edgeStyle=entityRelationEdgeStyle;curved=1;sketch=0;orthogonalLoop=1;jettySize=auto;html=1;entryX=0.5;entryY=0;entryDx=0;entryDy=0;fontSize=22;strokeWidth=4;exitX=0.414;exitY=1.025;exitDx=0;exitDy=0;fillColor=#dae8fc;strokeColor=#6c8ebf;exitPerimeter=0;" parent="1" source="BjhbaZAjBU6-snFWnnkG-105" target="BjhbaZAjBU6-snFWnnkG-80" edge="1">
                    <mxGeometry relative="1" as="geometry"/>
                </mxCell>
                <mxCell id="BjhbaZAjBU6-snFWnnkG-105" value="&lt;blockquote style=&quot;margin: 0 0 0 40px ; border: none ; padding: 0px&quot;&gt;&lt;blockquote style=&quot;margin: 0 0 0 40px ; border: none ; padding: 0px&quot;&gt;&lt;blockquote style=&quot;margin: 0 0 0 40px ; border: none ; padding: 0px&quot;&gt;&lt;div&gt;&lt;/div&gt;&lt;/blockquote&gt;&lt;/blockquote&gt;&lt;/blockquote&gt;&lt;span style=&quot;font-size: 23px&quot;&gt;&lt;div style=&quot;text-align: center&quot;&gt;&lt;b&gt;WHAT IS THE INFLUENCE OF NOMINATION?&lt;/b&gt;&lt;/div&gt;&lt;/span&gt;&lt;p class=&quot;MsoListParagraphCxSpFirst&quot; style=&quot;margin: 0cm 0cm 0cm 36pt ; font-family: &amp;#34;calibri&amp;#34; , sans-serif ; color: rgb(0 , 0 , 0) ; text-indent: -18pt ; vertical-align: baseline&quot;&gt;&lt;/p&gt;&lt;ol&gt;&lt;li&gt;&lt;span style=&quot;text-indent: -18pt&quot;&gt;To assess the amount of land cover and land use type change before nomination.&lt;/span&gt;&lt;/li&gt;&lt;li&gt;&lt;span style=&quot;text-indent: -18pt&quot;&gt;To assess the amount of land cover and land use type change after nomination.&lt;/span&gt;&lt;/li&gt;&lt;li&gt;&lt;span style=&quot;text-indent: -18pt&quot;&gt;To assess the rate of land-use and land cover change before and after nomination.&lt;/span&gt;&lt;/li&gt;&lt;/ol&gt;&lt;p&gt;&lt;/p&gt;&lt;p class=&quot;MsoListParagraphCxSpLast&quot; style=&quot;margin: 0cm 0cm 0cm 36pt ; font-family: &amp;#34;calibri&amp;#34; , sans-serif ; color: rgb(0 , 0 , 0) ; text-indent: -18pt ; vertical-align: baseline&quot;&gt;&lt;span style=&quot;font-size: 11pt ; font-size: 11pt&quot;&gt;&lt;/span&gt;&lt;/p&gt;" style="rounded=1;whiteSpace=wrap;html=1;sketch=0;fontSize=22;fillColor=#dae8fc;align=left;verticalAlign=top;labelPosition=center;verticalLabelPosition=middle;strokeColor=#6c8ebf;" parent="1" vertex="1">
                    <mxGeometry x="1362.75" y="1770" width="680" height="220" as="geometry"/>
                </mxCell>
            </root>
        </mxGraphModel>
    </diagram>
    <diagram id="9xp86uJfm40RDKvh4--S" name="Dataflow">
        <mxGraphModel dx="956" dy="802" grid="1" gridSize="10" guides="1" tooltips="1" connect="1" arrows="1" fold="1" page="1" pageScale="1" pageWidth="850" pageHeight="1100" math="0" shadow="0">
            <root>
                <mxCell id="GQnkNjo6-2wFI0aGqLSe-0"/>
                <mxCell id="GQnkNjo6-2wFI0aGqLSe-1" parent="GQnkNjo6-2wFI0aGqLSe-0"/>
                <mxCell id="KxUC-nMcVaCIjZKLDP71-0" value="Data" style="shape=parallelogram;html=1;strokeWidth=2;perimeter=parallelogramPerimeter;whiteSpace=wrap;rounded=1;arcSize=12;size=0.23;" parent="GQnkNjo6-2wFI0aGqLSe-1" vertex="1">
                    <mxGeometry x="80" y="110" width="100" height="60" as="geometry"/>
                </mxCell>
                <mxCell id="KxUC-nMcVaCIjZKLDP71-1" value="Document" style="strokeWidth=2;html=1;shape=mxgraph.flowchart.document2;whiteSpace=wrap;size=0.25;" parent="GQnkNjo6-2wFI0aGqLSe-1" vertex="1">
                    <mxGeometry x="70" y="290" width="100" height="60" as="geometry"/>
                </mxCell>
                <mxCell id="KxUC-nMcVaCIjZKLDP71-2" value="Process" style="rounded=1;whiteSpace=wrap;html=1;absoluteArcSize=1;arcSize=14;strokeWidth=2;" parent="GQnkNjo6-2wFI0aGqLSe-1" vertex="1">
                    <mxGeometry x="70" y="200" width="140" height="60" as="geometry"/>
                </mxCell>
                <mxCell id="KxUC-nMcVaCIjZKLDP71-3" value="Display" style="shape=display;whiteSpace=wrap;html=1;" parent="GQnkNjo6-2wFI0aGqLSe-1" vertex="1">
                    <mxGeometry x="440" y="170" width="80" height="40" as="geometry"/>
                </mxCell>
                <mxCell id="KxUC-nMcVaCIjZKLDP71-4" value="Decision" style="rhombus;whiteSpace=wrap;html=1;rounded=1;strokeWidth=2;arcSize=12;" parent="GQnkNjo6-2wFI0aGqLSe-1" vertex="1">
                    <mxGeometry x="80" y="360" width="80" height="80" as="geometry"/>
                </mxCell>
                <mxCell id="KxUC-nMcVaCIjZKLDP71-5" value="Database" style="shape=cylinder3;whiteSpace=wrap;html=1;boundedLbl=1;backgroundOutline=1;size=15;" parent="GQnkNjo6-2wFI0aGqLSe-1" vertex="1">
                    <mxGeometry x="90" y="450" width="60" height="80" as="geometry"/>
                </mxCell>
                <mxCell id="KxUC-nMcVaCIjZKLDP71-6" value="" style="edgeStyle=elbowEdgeStyle;elbow=horizontal;endArrow=classic;html=1;strokeWidth=2;" parent="GQnkNjo6-2wFI0aGqLSe-1" edge="1">
                    <mxGeometry width="50" height="50" relative="1" as="geometry">
                        <mxPoint x="300" y="170" as="sourcePoint"/>
                        <mxPoint x="350" y="120" as="targetPoint"/>
                    </mxGeometry>
                </mxCell>
                <mxCell id="XYpNd20moe_UTNHxV3wS-0" value="manual input" style="html=1;strokeWidth=2;shape=manualInput;whiteSpace=wrap;rounded=1;size=26;arcSize=11;" parent="GQnkNjo6-2wFI0aGqLSe-1" vertex="1">
                    <mxGeometry x="80" y="10" width="100" height="60" as="geometry"/>
                </mxCell>
                <mxCell id="XYpNd20moe_UTNHxV3wS-1" value="manual operation" style="verticalLabelPosition=bottom;verticalAlign=middle;html=1;shape=trapezoid;perimeter=trapezoidPerimeter;whiteSpace=wrap;size=0.22499999999999998;flipV=1;strokeWidth=2;" parent="GQnkNjo6-2wFI0aGqLSe-1" vertex="1">
                    <mxGeometry x="70" y="550" width="100" height="60" as="geometry"/>
                </mxCell>
                <mxCell id="XYpNd20moe_UTNHxV3wS-2" value="Data" style="shape=parallelogram;html=1;strokeWidth=2;perimeter=parallelogramPerimeter;whiteSpace=wrap;rounded=1;arcSize=12;size=0.23;" parent="GQnkNjo6-2wFI0aGqLSe-1" vertex="1">
                    <mxGeometry x="70" y="670" width="100" height="60" as="geometry"/>
                </mxCell>
                <mxCell id="XYpNd20moe_UTNHxV3wS-3" value="Process" style="rounded=1;whiteSpace=wrap;html=1;absoluteArcSize=1;arcSize=14;strokeWidth=2;" parent="GQnkNjo6-2wFI0aGqLSe-1" vertex="1">
                    <mxGeometry x="10" y="760" width="140" height="60" as="geometry"/>
                </mxCell>
                <mxCell id="XYpNd20moe_UTNHxV3wS-4" value="Question 2: what are the topologically distinct types of world-heritage zones in relation to urban areas?&amp;nbsp;" style="rounded=0;whiteSpace=wrap;html=1;align=left;" parent="GQnkNjo6-2wFI0aGqLSe-1" vertex="1">
                    <mxGeometry x="300" y="530" width="430" height="60" as="geometry"/>
                </mxCell>
                <mxCell id="XYpNd20moe_UTNHxV3wS-5" value="Approach: Set-theoretic, mathematical-morpohlogy, using raster data, we form set relations between heritage zones and urban zones, and then try to cluster/classify them using Topological Data Analysis, Spatial Data analysis.&amp;nbsp;" style="rounded=0;whiteSpace=wrap;html=1;align=left;" parent="GQnkNjo6-2wFI0aGqLSe-1" vertex="1">
                    <mxGeometry x="300" y="600" width="430" height="60" as="geometry"/>
                </mxCell>
                <UserObject label="Mathematical Morphology" link="https://en.wikipedia.org/wiki/Mathematical_morphology" id="XYpNd20moe_UTNHxV3wS-6">
                    <mxCell style="text;html=1;align=center;verticalAlign=middle;resizable=0;points=[];autosize=1;fontColor=#009999;fontStyle=5;fontSize=14;" parent="GQnkNjo6-2wFI0aGqLSe-1" vertex="1">
                        <mxGeometry x="305" y="430" width="190" height="20" as="geometry"/>
                    </mxCell>
                </UserObject>
                <UserObject label="&lt;span style=&quot;font-family: sans-serif; font-size: 14px; background-color: rgb(255, 255, 255);&quot;&gt;Dimensionally Extended 9-Intersection Model&lt;/span&gt;&lt;span style=&quot;font-family: sans-serif; font-size: 14px; background-color: rgb(255, 255, 255);&quot;&gt;&amp;nbsp;(&lt;/span&gt;&lt;span style=&quot;font-family: sans-serif; font-size: 14px; background-color: rgb(255, 255, 255);&quot;&gt;DE-9IM&lt;/span&gt;&lt;span style=&quot;font-family: sans-serif; font-size: 14px; background-color: rgb(255, 255, 255);&quot;&gt;)&amp;nbsp;&lt;/span&gt;" link="https://en.wikipedia.org/wiki/DE-9IM" id="XYpNd20moe_UTNHxV3wS-7">
                    <mxCell style="text;html=1;align=center;verticalAlign=middle;resizable=0;points=[];autosize=1;fontColor=#009999;fontStyle=5;fontSize=14;" parent="GQnkNjo6-2wFI0aGqLSe-1" vertex="1">
                        <mxGeometry x="305" y="460" width="380" height="20" as="geometry"/>
                    </mxCell>
                </UserObject>
                <UserObject label="Topological Data Analysis" link="https://en.wikipedia.org/wiki/Topological_data_analysis" id="XYpNd20moe_UTNHxV3wS-8">
                    <mxCell style="text;html=1;align=center;verticalAlign=middle;resizable=0;points=[];autosize=1;fontColor=#009999;fontStyle=5;fontSize=14;" parent="GQnkNjo6-2wFI0aGqLSe-1" vertex="1">
                        <mxGeometry x="305" y="490" width="190" height="20" as="geometry"/>
                    </mxCell>
                </UserObject>
                <mxCell id="XYpNd20moe_UTNHxV3wS-9" value="Categorical Data" style="shape=parallelogram;html=1;strokeWidth=2;perimeter=parallelogramPerimeter;whiteSpace=wrap;rounded=1;arcSize=12;size=0.05;" parent="GQnkNjo6-2wFI0aGqLSe-1" vertex="1">
                    <mxGeometry x="300" y="690" width="150" height="60" as="geometry"/>
                </mxCell>
                <mxCell id="XYpNd20moe_UTNHxV3wS-10" value="Numerical Data" style="shape=parallelogram;html=1;strokeWidth=2;perimeter=parallelogramPerimeter;whiteSpace=wrap;rounded=1;arcSize=12;size=0.05;" parent="GQnkNjo6-2wFI0aGqLSe-1" vertex="1">
                    <mxGeometry x="480" y="690" width="150" height="60" as="geometry"/>
                </mxCell>
                <mxCell id="XYpNd20moe_UTNHxV3wS-11" value="Question 1: How to describe a particular spatial configuration of zones numerically?&amp;nbsp;" style="rounded=0;whiteSpace=wrap;html=1;align=left;" parent="GQnkNjo6-2wFI0aGqLSe-1" vertex="1">
                    <mxGeometry x="280" y="350" width="430" height="60" as="geometry"/>
                </mxCell>
                <mxCell id="XYpNd20moe_UTNHxV3wS-12" value="" style="rounded=1;whiteSpace=wrap;html=1;fontSize=14;fontColor=#009999;align=left;fillColor=#4D4D4D;" parent="GQnkNjo6-2wFI0aGqLSe-1" vertex="1">
                    <mxGeometry x="80" y="880" width="40" height="40" as="geometry"/>
                </mxCell>
                <mxCell id="XYpNd20moe_UTNHxV3wS-13" value="" style="rounded=1;whiteSpace=wrap;html=1;fontSize=14;fontColor=#009999;align=left;fillColor=#4D4D4D;" parent="GQnkNjo6-2wFI0aGqLSe-1" vertex="1">
                    <mxGeometry x="80" y="920" width="40" height="40" as="geometry"/>
                </mxCell>
                <mxCell id="XYpNd20moe_UTNHxV3wS-14" value="" style="rounded=1;whiteSpace=wrap;html=1;fontSize=14;fontColor=#009999;align=left;fillColor=#FF3333;" parent="GQnkNjo6-2wFI0aGqLSe-1" vertex="1">
                    <mxGeometry x="120" y="880" width="40" height="40" as="geometry"/>
                </mxCell>
                <mxCell id="XYpNd20moe_UTNHxV3wS-15" value="" style="rounded=1;whiteSpace=wrap;html=1;fontSize=14;fontColor=#009999;align=left;fillColor=#4D4D4D;" parent="GQnkNjo6-2wFI0aGqLSe-1" vertex="1">
                    <mxGeometry x="120" y="920" width="40" height="40" as="geometry"/>
                </mxCell>
                <mxCell id="XYpNd20moe_UTNHxV3wS-16" value="" style="rounded=1;whiteSpace=wrap;html=1;fontSize=14;fontColor=#009999;align=left;fillColor=#4D4D4D;" parent="GQnkNjo6-2wFI0aGqLSe-1" vertex="1">
                    <mxGeometry x="160" y="880" width="40" height="40" as="geometry"/>
                </mxCell>
                <mxCell id="XYpNd20moe_UTNHxV3wS-17" value="" style="rounded=1;whiteSpace=wrap;html=1;fontSize=14;fontColor=#009999;align=left;" parent="GQnkNjo6-2wFI0aGqLSe-1" vertex="1">
                    <mxGeometry x="160" y="920" width="40" height="40" as="geometry"/>
                </mxCell>
                <mxCell id="XYpNd20moe_UTNHxV3wS-18" value="" style="rounded=1;whiteSpace=wrap;html=1;fontSize=14;fontColor=#009999;align=left;fillColor=#FF3333;" parent="GQnkNjo6-2wFI0aGqLSe-1" vertex="1">
                    <mxGeometry x="160" y="920" width="40" height="40" as="geometry"/>
                </mxCell>
                <mxCell id="XYpNd20moe_UTNHxV3wS-19" value="" style="rounded=1;whiteSpace=wrap;html=1;fontSize=14;fontColor=#009999;align=left;fillColor=#4D4D4D;" parent="GQnkNjo6-2wFI0aGqLSe-1" vertex="1">
                    <mxGeometry x="160" y="960" width="40" height="40" as="geometry"/>
                </mxCell>
                <mxCell id="XYpNd20moe_UTNHxV3wS-20" value="" style="rounded=1;whiteSpace=wrap;html=1;fontSize=14;fontColor=#009999;align=left;fillColor=#FF3333;" parent="GQnkNjo6-2wFI0aGqLSe-1" vertex="1">
                    <mxGeometry x="200" y="920" width="40" height="40" as="geometry"/>
                </mxCell>
                <mxCell id="XYpNd20moe_UTNHxV3wS-21" value="" style="rounded=1;whiteSpace=wrap;html=1;fontSize=14;fontColor=#009999;align=left;fillColor=#4D4D4D;" parent="GQnkNjo6-2wFI0aGqLSe-1" vertex="1">
                    <mxGeometry x="200" y="880" width="40" height="40" as="geometry"/>
                </mxCell>
                <mxCell id="XYpNd20moe_UTNHxV3wS-22" value="" style="rounded=1;whiteSpace=wrap;html=1;fontSize=14;fontColor=#009999;align=left;fillColor=#FF3333;" parent="GQnkNjo6-2wFI0aGqLSe-1" vertex="1">
                    <mxGeometry x="200" y="960" width="40" height="40" as="geometry"/>
                </mxCell>
                <mxCell id="XYpNd20moe_UTNHxV3wS-23" value="" style="rounded=1;whiteSpace=wrap;html=1;fontSize=14;fontColor=#009999;align=left;fillColor=#4D4D4D;" parent="GQnkNjo6-2wFI0aGqLSe-1" vertex="1">
                    <mxGeometry x="240" y="880" width="40" height="40" as="geometry"/>
                </mxCell>
                <mxCell id="XYpNd20moe_UTNHxV3wS-24" value="" style="rounded=1;whiteSpace=wrap;html=1;fontSize=14;fontColor=#009999;align=left;fillColor=#4D4D4D;" parent="GQnkNjo6-2wFI0aGqLSe-1" vertex="1">
                    <mxGeometry x="240" y="920" width="40" height="40" as="geometry"/>
                </mxCell>
                <UserObject label="Spatial Data analysis" link="https://en.wikipedia.org/wiki/Topological_data_analysis" id="XCYmcHrXg8XUJmNyYtFL-0">
                    <mxCell style="text;html=1;align=center;verticalAlign=middle;resizable=0;points=[];autosize=1;fontColor=#009999;fontStyle=5;fontSize=14;" parent="GQnkNjo6-2wFI0aGqLSe-1" vertex="1">
                        <mxGeometry x="525" y="490" width="160" height="20" as="geometry"/>
                    </mxCell>
                </UserObject>
                <mxCell id="XCYmcHrXg8XUJmNyYtFL-1" value="Spatial Data Analysis" style="rounded=1;whiteSpace=wrap;html=1;absoluteArcSize=1;arcSize=14;strokeWidth=2;" parent="GQnkNjo6-2wFI0aGqLSe-1" vertex="1">
                    <mxGeometry x="890" y="360" width="140" height="60" as="geometry"/>
                </mxCell>
                <mxCell id="XCYmcHrXg8XUJmNyYtFL-5" style="edgeStyle=none;curved=1;html=1;" parent="GQnkNjo6-2wFI0aGqLSe-1" source="XCYmcHrXg8XUJmNyYtFL-3" edge="1">
                    <mxGeometry relative="1" as="geometry">
                        <mxPoint x="1040" y="379.9999999999998" as="targetPoint"/>
                    </mxGeometry>
                </mxCell>
                <mxCell id="XCYmcHrXg8XUJmNyYtFL-6" style="edgeStyle=none;curved=1;html=1;entryX=0;entryY=0.5;entryDx=0;entryDy=0;" parent="GQnkNjo6-2wFI0aGqLSe-1" source="XCYmcHrXg8XUJmNyYtFL-3" target="XCYmcHrXg8XUJmNyYtFL-4" edge="1">
                    <mxGeometry relative="1" as="geometry"/>
                </mxCell>
                <mxCell id="XCYmcHrXg8XUJmNyYtFL-3" value="Decision" style="rhombus;whiteSpace=wrap;html=1;rounded=1;strokeWidth=2;arcSize=12;" parent="GQnkNjo6-2wFI0aGqLSe-1" vertex="1">
                    <mxGeometry x="1120" y="340" width="80" height="80" as="geometry"/>
                </mxCell>
                <mxCell id="XCYmcHrXg8XUJmNyYtFL-4" value="Topological Data Analyis" style="rounded=1;whiteSpace=wrap;html=1;absoluteArcSize=1;arcSize=14;strokeWidth=2;" parent="GQnkNjo6-2wFI0aGqLSe-1" vertex="1">
                    <mxGeometry x="1310" y="350" width="140" height="60" as="geometry"/>
                </mxCell>
                <mxCell id="XCYmcHrXg8XUJmNyYtFL-7" value="Aim: To define the varied natrue of world heritage cities in order to automate the classification of world heritage cities into the varied nature categories." style="rounded=0;whiteSpace=wrap;html=1;align=left;" parent="GQnkNjo6-2wFI0aGqLSe-1" vertex="1">
                    <mxGeometry x="305" y="790" width="430" height="60" as="geometry"/>
                </mxCell>
            </root>
        </mxGraphModel>
    </diagram>
    <diagram id="SbngSI1MCnO_hYCZdwLq" name="Illustration">
        <mxGraphModel dx="956" dy="802" grid="1" gridSize="10" guides="1" tooltips="1" connect="1" arrows="1" fold="1" page="1" pageScale="1" pageWidth="850" pageHeight="1100" math="0" shadow="0">
            <root>
                <mxCell id="zVL4Phf0bucHOUlPguoP-0"/>
                <mxCell id="zVL4Phf0bucHOUlPguoP-1" parent="zVL4Phf0bucHOUlPguoP-0"/>
                <mxCell id="v2dG8xaTXyrqpcHC4MSC-0" value="Toy Probelm" style="text;html=1;align=center;verticalAlign=middle;resizable=0;points=[];autosize=1;fontSize=14;fontColor=#009999;" parent="zVL4Phf0bucHOUlPguoP-1" vertex="1">
                    <mxGeometry x="100" y="310" width="90" height="20" as="geometry"/>
                </mxCell>
                <mxCell id="7bHMy3Jdgv7WSAKcgQPk-0" value="" style="rounded=1;whiteSpace=wrap;html=1;fontSize=14;fontColor=#009999;align=left;fillColor=#4D4D4D;" parent="zVL4Phf0bucHOUlPguoP-1" vertex="1">
                    <mxGeometry x="320" y="640" width="40" height="40" as="geometry"/>
                </mxCell>
                <mxCell id="7bHMy3Jdgv7WSAKcgQPk-1" value="" style="rounded=1;whiteSpace=wrap;html=1;fontSize=14;fontColor=#009999;align=left;fillColor=#4D4D4D;" parent="zVL4Phf0bucHOUlPguoP-1" vertex="1">
                    <mxGeometry x="240" y="520" width="40" height="40" as="geometry"/>
                </mxCell>
                <mxCell id="7bHMy3Jdgv7WSAKcgQPk-2" value="" style="rounded=1;whiteSpace=wrap;html=1;fontSize=14;fontColor=#009999;align=left;fillColor=#FF3333;" parent="zVL4Phf0bucHOUlPguoP-1" vertex="1">
                    <mxGeometry x="320" y="560" width="40" height="40" as="geometry"/>
                </mxCell>
                <mxCell id="7bHMy3Jdgv7WSAKcgQPk-3" value="" style="rounded=1;whiteSpace=wrap;html=1;fontSize=14;fontColor=#009999;align=left;fillColor=#4D4D4D;" parent="zVL4Phf0bucHOUlPguoP-1" vertex="1">
                    <mxGeometry x="280" y="520" width="40" height="40" as="geometry"/>
                </mxCell>
                <mxCell id="7bHMy3Jdgv7WSAKcgQPk-4" value="" style="rounded=1;whiteSpace=wrap;html=1;fontSize=14;fontColor=#009999;align=left;fillColor=#4D4D4D;" parent="zVL4Phf0bucHOUlPguoP-1" vertex="1">
                    <mxGeometry x="320" y="480" width="40" height="40" as="geometry"/>
                </mxCell>
                <mxCell id="7bHMy3Jdgv7WSAKcgQPk-5" value="" style="rounded=1;whiteSpace=wrap;html=1;fontSize=14;fontColor=#009999;align=left;" parent="zVL4Phf0bucHOUlPguoP-1" vertex="1">
                    <mxGeometry x="320" y="520" width="40" height="40" as="geometry"/>
                </mxCell>
                <mxCell id="7bHMy3Jdgv7WSAKcgQPk-6" value="" style="rounded=1;whiteSpace=wrap;html=1;fontSize=14;fontColor=#009999;align=left;fillColor=#FF3333;" parent="zVL4Phf0bucHOUlPguoP-1" vertex="1">
                    <mxGeometry x="320" y="520" width="40" height="40" as="geometry"/>
                </mxCell>
                <mxCell id="7bHMy3Jdgv7WSAKcgQPk-7" value="" style="rounded=1;whiteSpace=wrap;html=1;fontSize=14;fontColor=#009999;align=left;fillColor=#4D4D4D;" parent="zVL4Phf0bucHOUlPguoP-1" vertex="1">
                    <mxGeometry x="360" y="640" width="40" height="40" as="geometry"/>
                </mxCell>
                <mxCell id="7bHMy3Jdgv7WSAKcgQPk-8" value="" style="rounded=1;whiteSpace=wrap;html=1;fontSize=14;fontColor=#009999;align=left;fillColor=#FF3333;" parent="zVL4Phf0bucHOUlPguoP-1" vertex="1">
                    <mxGeometry x="360" y="520" width="40" height="40" as="geometry"/>
                </mxCell>
                <mxCell id="7bHMy3Jdgv7WSAKcgQPk-9" value="" style="rounded=1;whiteSpace=wrap;html=1;fontSize=14;fontColor=#009999;align=left;fillColor=#4D4D4D;" parent="zVL4Phf0bucHOUlPguoP-1" vertex="1">
                    <mxGeometry x="360" y="480" width="40" height="40" as="geometry"/>
                </mxCell>
                <mxCell id="7bHMy3Jdgv7WSAKcgQPk-10" value="" style="rounded=1;whiteSpace=wrap;html=1;fontSize=14;fontColor=#009999;align=left;fillColor=#FF3333;" parent="zVL4Phf0bucHOUlPguoP-1" vertex="1">
                    <mxGeometry x="360" y="560" width="40" height="40" as="geometry"/>
                </mxCell>
                <mxCell id="7bHMy3Jdgv7WSAKcgQPk-11" value="" style="rounded=1;whiteSpace=wrap;html=1;fontSize=14;fontColor=#009999;align=left;fillColor=#4D4D4D;" parent="zVL4Phf0bucHOUlPguoP-1" vertex="1">
                    <mxGeometry x="400" y="480" width="40" height="40" as="geometry"/>
                </mxCell>
                <mxCell id="7bHMy3Jdgv7WSAKcgQPk-12" value="" style="rounded=1;whiteSpace=wrap;html=1;fontSize=14;fontColor=#009999;align=left;fillColor=#4D4D4D;" parent="zVL4Phf0bucHOUlPguoP-1" vertex="1">
                    <mxGeometry x="400" y="520" width="40" height="40" as="geometry"/>
                </mxCell>
                <mxCell id="e4lMJAv-rAvy1M_ds6a3-1" value="" style="rounded=1;whiteSpace=wrap;html=1;fontSize=14;fontColor=#009999;align=left;fillColor=#4D4D4D;" parent="zVL4Phf0bucHOUlPguoP-1" vertex="1">
                    <mxGeometry x="400" y="560" width="40" height="40" as="geometry"/>
                </mxCell>
                <mxCell id="e4lMJAv-rAvy1M_ds6a3-2" value="" style="rounded=1;whiteSpace=wrap;html=1;fontSize=14;fontColor=#009999;align=left;fillColor=#4D4D4D;" parent="zVL4Phf0bucHOUlPguoP-1" vertex="1">
                    <mxGeometry x="280" y="560" width="40" height="40" as="geometry"/>
                </mxCell>
                <mxCell id="e4lMJAv-rAvy1M_ds6a3-3" value="" style="rounded=1;whiteSpace=wrap;html=1;fontSize=14;fontColor=#009999;align=left;fillColor=#4D4D4D;" parent="zVL4Phf0bucHOUlPguoP-1" vertex="1">
                    <mxGeometry x="240" y="560" width="40" height="40" as="geometry"/>
                </mxCell>
                <mxCell id="e4lMJAv-rAvy1M_ds6a3-4" value="" style="rounded=1;whiteSpace=wrap;html=1;fontSize=14;fontColor=#009999;align=left;fillColor=#4D4D4D;" parent="zVL4Phf0bucHOUlPguoP-1" vertex="1">
                    <mxGeometry x="440" y="560" width="40" height="40" as="geometry"/>
                </mxCell>
                <mxCell id="e4lMJAv-rAvy1M_ds6a3-5" value="" style="rounded=1;whiteSpace=wrap;html=1;fontSize=14;fontColor=#009999;align=left;fillColor=#4D4D4D;" parent="zVL4Phf0bucHOUlPguoP-1" vertex="1">
                    <mxGeometry x="280" y="600" width="40" height="40" as="geometry"/>
                </mxCell>
                <mxCell id="e4lMJAv-rAvy1M_ds6a3-6" value="" style="rounded=1;whiteSpace=wrap;html=1;fontSize=14;fontColor=#009999;align=left;fillColor=#4D4D4D;" parent="zVL4Phf0bucHOUlPguoP-1" vertex="1">
                    <mxGeometry x="320" y="600" width="40" height="40" as="geometry"/>
                </mxCell>
                <mxCell id="e4lMJAv-rAvy1M_ds6a3-7" value="" style="rounded=1;whiteSpace=wrap;html=1;fontSize=14;fontColor=#009999;align=left;fillColor=#4D4D4D;" parent="zVL4Phf0bucHOUlPguoP-1" vertex="1">
                    <mxGeometry x="360" y="600" width="40" height="40" as="geometry"/>
                </mxCell>
                <mxCell id="e4lMJAv-rAvy1M_ds6a3-8" value="" style="rounded=1;whiteSpace=wrap;html=1;fontSize=14;fontColor=#009999;align=left;fillColor=#4D4D4D;" parent="zVL4Phf0bucHOUlPguoP-1" vertex="1">
                    <mxGeometry x="400" y="600" width="40" height="40" as="geometry"/>
                </mxCell>
                <mxCell id="e4lMJAv-rAvy1M_ds6a3-9" value="" style="rounded=1;whiteSpace=wrap;html=1;fontSize=14;fontColor=#009999;align=left;fillColor=#4D4D4D;" parent="zVL4Phf0bucHOUlPguoP-1" vertex="1">
                    <mxGeometry x="280" y="480" width="40" height="40" as="geometry"/>
                </mxCell>
                <mxCell id="e4lMJAv-rAvy1M_ds6a3-11" value="" style="rounded=1;whiteSpace=wrap;html=1;fontSize=14;fontColor=#009999;align=left;fillColor=#4D4D4D;" parent="zVL4Phf0bucHOUlPguoP-1" vertex="1">
                    <mxGeometry x="440" y="520" width="40" height="40" as="geometry"/>
                </mxCell>
                <mxCell id="e4lMJAv-rAvy1M_ds6a3-12" value="" style="rounded=1;whiteSpace=wrap;html=1;fontSize=14;fontColor=#009999;align=left;fillColor=#4D4D4D;" parent="zVL4Phf0bucHOUlPguoP-1" vertex="1">
                    <mxGeometry x="320" y="440" width="40" height="40" as="geometry"/>
                </mxCell>
                <mxCell id="e4lMJAv-rAvy1M_ds6a3-13" value="" style="rounded=1;whiteSpace=wrap;html=1;fontSize=14;fontColor=#009999;align=left;fillColor=#4D4D4D;" parent="zVL4Phf0bucHOUlPguoP-1" vertex="1">
                    <mxGeometry x="360" y="440" width="40" height="40" as="geometry"/>
                </mxCell>
                <mxCell id="e4lMJAv-rAvy1M_ds6a3-16" value="" style="rounded=1;whiteSpace=wrap;html=1;fontSize=14;fontColor=#009999;align=left;fillColor=#FF3333;" parent="zVL4Phf0bucHOUlPguoP-1" vertex="1">
                    <mxGeometry x="690" y="920" width="40" height="40" as="geometry"/>
                </mxCell>
                <mxCell id="e4lMJAv-rAvy1M_ds6a3-18" value="" style="rounded=1;whiteSpace=wrap;html=1;fontSize=14;fontColor=#009999;align=left;fillColor=#FF3333;" parent="zVL4Phf0bucHOUlPguoP-1" vertex="1">
                    <mxGeometry x="650" y="920" width="40" height="40" as="geometry"/>
                </mxCell>
                <mxCell id="e4lMJAv-rAvy1M_ds6a3-19" value="" style="rounded=1;whiteSpace=wrap;html=1;fontSize=14;fontColor=#009999;align=left;fillColor=#FF3333;" parent="zVL4Phf0bucHOUlPguoP-1" vertex="1">
                    <mxGeometry x="650" y="880" width="40" height="40" as="geometry"/>
                </mxCell>
                <mxCell id="e4lMJAv-rAvy1M_ds6a3-20" value="" style="rounded=1;whiteSpace=wrap;html=1;fontSize=14;fontColor=#009999;align=left;fillColor=#FF3333;" parent="zVL4Phf0bucHOUlPguoP-1" vertex="1">
                    <mxGeometry x="690" y="880" width="40" height="40" as="geometry"/>
                </mxCell>
                <mxCell id="e4lMJAv-rAvy1M_ds6a3-21" value="" style="rounded=1;whiteSpace=wrap;html=1;fontSize=14;fontColor=#009999;align=left;fillColor=#4D4D4D;" parent="zVL4Phf0bucHOUlPguoP-1" vertex="1">
                    <mxGeometry x="660" y="760" width="40" height="40" as="geometry"/>
                </mxCell>
                <mxCell id="e4lMJAv-rAvy1M_ds6a3-22" value="" style="rounded=1;whiteSpace=wrap;html=1;fontSize=14;fontColor=#009999;align=left;fillColor=#4D4D4D;" parent="zVL4Phf0bucHOUlPguoP-1" vertex="1">
                    <mxGeometry x="580" y="640" width="40" height="40" as="geometry"/>
                </mxCell>
                <mxCell id="e4lMJAv-rAvy1M_ds6a3-23" value="" style="rounded=1;whiteSpace=wrap;html=1;fontSize=14;fontColor=#009999;align=left;fillColor=#FF3333;" parent="zVL4Phf0bucHOUlPguoP-1" vertex="1">
                    <mxGeometry x="660" y="680" width="40" height="40" as="geometry"/>
                </mxCell>
                <mxCell id="e4lMJAv-rAvy1M_ds6a3-24" value="" style="rounded=1;whiteSpace=wrap;html=1;fontSize=14;fontColor=#009999;align=left;fillColor=#4D4D4D;" parent="zVL4Phf0bucHOUlPguoP-1" vertex="1">
                    <mxGeometry x="620" y="640" width="40" height="40" as="geometry"/>
                </mxCell>
                <mxCell id="e4lMJAv-rAvy1M_ds6a3-25" value="" style="rounded=1;whiteSpace=wrap;html=1;fontSize=14;fontColor=#009999;align=left;fillColor=#4D4D4D;" parent="zVL4Phf0bucHOUlPguoP-1" vertex="1">
                    <mxGeometry x="660" y="600" width="40" height="40" as="geometry"/>
                </mxCell>
                <mxCell id="e4lMJAv-rAvy1M_ds6a3-26" value="" style="rounded=1;whiteSpace=wrap;html=1;fontSize=14;fontColor=#009999;align=left;" parent="zVL4Phf0bucHOUlPguoP-1" vertex="1">
                    <mxGeometry x="660" y="640" width="40" height="40" as="geometry"/>
                </mxCell>
                <mxCell id="e4lMJAv-rAvy1M_ds6a3-27" value="" style="rounded=1;whiteSpace=wrap;html=1;fontSize=14;fontColor=#009999;align=left;fillColor=#FF3333;" parent="zVL4Phf0bucHOUlPguoP-1" vertex="1">
                    <mxGeometry x="660" y="640" width="40" height="40" as="geometry"/>
                </mxCell>
                <mxCell id="e4lMJAv-rAvy1M_ds6a3-28" value="" style="rounded=1;whiteSpace=wrap;html=1;fontSize=14;fontColor=#009999;align=left;fillColor=#4D4D4D;" parent="zVL4Phf0bucHOUlPguoP-1" vertex="1">
                    <mxGeometry x="700" y="760" width="40" height="40" as="geometry"/>
                </mxCell>
                <mxCell id="e4lMJAv-rAvy1M_ds6a3-29" value="" style="rounded=1;whiteSpace=wrap;html=1;fontSize=14;fontColor=#009999;align=left;fillColor=#FF3333;" parent="zVL4Phf0bucHOUlPguoP-1" vertex="1">
                    <mxGeometry x="700" y="640" width="40" height="40" as="geometry"/>
                </mxCell>
                <mxCell id="e4lMJAv-rAvy1M_ds6a3-30" value="" style="rounded=1;whiteSpace=wrap;html=1;fontSize=14;fontColor=#009999;align=left;fillColor=#4D4D4D;" parent="zVL4Phf0bucHOUlPguoP-1" vertex="1">
                    <mxGeometry x="700" y="600" width="40" height="40" as="geometry"/>
                </mxCell>
                <mxCell id="e4lMJAv-rAvy1M_ds6a3-31" value="" style="rounded=1;whiteSpace=wrap;html=1;fontSize=14;fontColor=#009999;align=left;fillColor=#FF3333;" parent="zVL4Phf0bucHOUlPguoP-1" vertex="1">
                    <mxGeometry x="700" y="680" width="40" height="40" as="geometry"/>
                </mxCell>
                <mxCell id="e4lMJAv-rAvy1M_ds6a3-32" value="" style="rounded=1;whiteSpace=wrap;html=1;fontSize=14;fontColor=#009999;align=left;fillColor=#4D4D4D;" parent="zVL4Phf0bucHOUlPguoP-1" vertex="1">
                    <mxGeometry x="740" y="600" width="40" height="40" as="geometry"/>
                </mxCell>
                <mxCell id="e4lMJAv-rAvy1M_ds6a3-33" value="" style="rounded=1;whiteSpace=wrap;html=1;fontSize=14;fontColor=#009999;align=left;fillColor=#4D4D4D;" parent="zVL4Phf0bucHOUlPguoP-1" vertex="1">
                    <mxGeometry x="740" y="640" width="40" height="40" as="geometry"/>
                </mxCell>
                <mxCell id="e4lMJAv-rAvy1M_ds6a3-34" value="" style="rounded=1;whiteSpace=wrap;html=1;fontSize=14;fontColor=#009999;align=left;fillColor=#4D4D4D;" parent="zVL4Phf0bucHOUlPguoP-1" vertex="1">
                    <mxGeometry x="740" y="680" width="40" height="40" as="geometry"/>
                </mxCell>
                <mxCell id="e4lMJAv-rAvy1M_ds6a3-35" value="" style="rounded=1;whiteSpace=wrap;html=1;fontSize=14;fontColor=#009999;align=left;fillColor=#4D4D4D;" parent="zVL4Phf0bucHOUlPguoP-1" vertex="1">
                    <mxGeometry x="620" y="680" width="40" height="40" as="geometry"/>
                </mxCell>
                <mxCell id="e4lMJAv-rAvy1M_ds6a3-46" style="edgeStyle=none;html=1;entryX=0;entryY=0;entryDx=0;entryDy=0;curved=1;" parent="zVL4Phf0bucHOUlPguoP-1" source="e4lMJAv-rAvy1M_ds6a3-36" target="e4lMJAv-rAvy1M_ds6a3-18" edge="1">
                    <mxGeometry relative="1" as="geometry">
                        <Array as="points">
                            <mxPoint x="480" y="850"/>
                        </Array>
                    </mxGeometry>
                </mxCell>
                <mxCell id="e4lMJAv-rAvy1M_ds6a3-36" value="" style="rounded=1;whiteSpace=wrap;html=1;fontSize=14;fontColor=#009999;align=left;fillColor=#4D4D4D;" parent="zVL4Phf0bucHOUlPguoP-1" vertex="1">
                    <mxGeometry x="580" y="680" width="40" height="40" as="geometry"/>
                </mxCell>
                <mxCell id="e4lMJAv-rAvy1M_ds6a3-47" style="edgeStyle=none;curved=1;html=1;entryX=1;entryY=0.25;entryDx=0;entryDy=0;" parent="zVL4Phf0bucHOUlPguoP-1" source="e4lMJAv-rAvy1M_ds6a3-37" target="e4lMJAv-rAvy1M_ds6a3-16" edge="1">
                    <mxGeometry relative="1" as="geometry">
                        <Array as="points">
                            <mxPoint x="930" y="850"/>
                        </Array>
                    </mxGeometry>
                </mxCell>
                <mxCell id="e4lMJAv-rAvy1M_ds6a3-37" value="" style="rounded=1;whiteSpace=wrap;html=1;fontSize=14;fontColor=#009999;align=left;fillColor=#4D4D4D;" parent="zVL4Phf0bucHOUlPguoP-1" vertex="1">
                    <mxGeometry x="780" y="680" width="40" height="40" as="geometry"/>
                </mxCell>
                <mxCell id="e4lMJAv-rAvy1M_ds6a3-38" value="" style="rounded=1;whiteSpace=wrap;html=1;fontSize=14;fontColor=#009999;align=left;fillColor=#4D4D4D;" parent="zVL4Phf0bucHOUlPguoP-1" vertex="1">
                    <mxGeometry x="620" y="720" width="40" height="40" as="geometry"/>
                </mxCell>
                <mxCell id="e4lMJAv-rAvy1M_ds6a3-39" value="" style="rounded=1;whiteSpace=wrap;html=1;fontSize=14;fontColor=#009999;align=left;fillColor=#4D4D4D;" parent="zVL4Phf0bucHOUlPguoP-1" vertex="1">
                    <mxGeometry x="660" y="720" width="40" height="40" as="geometry"/>
                </mxCell>
                <mxCell id="e4lMJAv-rAvy1M_ds6a3-40" value="" style="rounded=1;whiteSpace=wrap;html=1;fontSize=14;fontColor=#009999;align=left;fillColor=#4D4D4D;" parent="zVL4Phf0bucHOUlPguoP-1" vertex="1">
                    <mxGeometry x="700" y="720" width="40" height="40" as="geometry"/>
                </mxCell>
                <mxCell id="e4lMJAv-rAvy1M_ds6a3-41" value="" style="rounded=1;whiteSpace=wrap;html=1;fontSize=14;fontColor=#009999;align=left;fillColor=#4D4D4D;" parent="zVL4Phf0bucHOUlPguoP-1" vertex="1">
                    <mxGeometry x="740" y="720" width="40" height="40" as="geometry"/>
                </mxCell>
                <mxCell id="e4lMJAv-rAvy1M_ds6a3-42" value="" style="rounded=1;whiteSpace=wrap;html=1;fontSize=14;fontColor=#009999;align=left;fillColor=#4D4D4D;" parent="zVL4Phf0bucHOUlPguoP-1" vertex="1">
                    <mxGeometry x="620" y="600" width="40" height="40" as="geometry"/>
                </mxCell>
                <mxCell id="e4lMJAv-rAvy1M_ds6a3-43" value="" style="rounded=1;whiteSpace=wrap;html=1;fontSize=14;fontColor=#009999;align=left;fillColor=#4D4D4D;" parent="zVL4Phf0bucHOUlPguoP-1" vertex="1">
                    <mxGeometry x="780" y="640" width="40" height="40" as="geometry"/>
                </mxCell>
                <mxCell id="e4lMJAv-rAvy1M_ds6a3-44" value="" style="rounded=1;whiteSpace=wrap;html=1;fontSize=14;fontColor=#009999;align=left;fillColor=#4D4D4D;" parent="zVL4Phf0bucHOUlPguoP-1" vertex="1">
                    <mxGeometry x="660" y="560" width="40" height="40" as="geometry"/>
                </mxCell>
                <mxCell id="e4lMJAv-rAvy1M_ds6a3-45" value="" style="rounded=1;whiteSpace=wrap;html=1;fontSize=14;fontColor=#009999;align=left;fillColor=#4D4D4D;" parent="zVL4Phf0bucHOUlPguoP-1" vertex="1">
                    <mxGeometry x="700" y="560" width="40" height="40" as="geometry"/>
                </mxCell>
                <mxCell id="e4lMJAv-rAvy1M_ds6a3-49" value="Individual and Singular&amp;nbsp;" style="text;html=1;align=center;verticalAlign=middle;resizable=0;points=[];autosize=1;strokeColor=none;fillColor=none;" parent="zVL4Phf0bucHOUlPguoP-1" vertex="1">
                    <mxGeometry x="280" y="400" width="140" height="20" as="geometry"/>
                </mxCell>
            </root>
        </mxGraphModel>
    </diagram>
    <diagram id="BB--IkDMtT5dV_YHegdT" name="Regions of WorldHEritage">
        <mxGraphModel dx="956" dy="802" grid="1" gridSize="10" guides="1" tooltips="1" connect="1" arrows="1" fold="1" page="1" pageScale="1" pageWidth="850" pageHeight="1100" math="0" shadow="0">
            <root>
                <mxCell id="7vkCCJNquxt0IO_S3nZs-0"/>
                <mxCell id="7vkCCJNquxt0IO_S3nZs-1" parent="7vkCCJNquxt0IO_S3nZs-0"/>
                <mxCell id="rkLm2avvO5fGkW5fXCIF-0" value="Approach: Data assessment.&amp;nbsp;&lt;br&gt;Number of properties, Number of properties in their regions" style="rounded=0;whiteSpace=wrap;html=1;align=left;" parent="7vkCCJNquxt0IO_S3nZs-1" vertex="1">
                    <mxGeometry x="1070" y="530" width="430" height="60" as="geometry"/>
                </mxCell>
                <mxCell id="rkLm2avvO5fGkW5fXCIF-8" style="edgeStyle=none;html=1;" parent="7vkCCJNquxt0IO_S3nZs-1" source="rkLm2avvO5fGkW5fXCIF-2" target="rkLm2avvO5fGkW5fXCIF-7" edge="1">
                    <mxGeometry relative="1" as="geometry"/>
                </mxCell>
                <mxCell id="rkLm2avvO5fGkW5fXCIF-2" value="UNESCO Regions and properties in the regions" style="rounded=0;whiteSpace=wrap;html=1;align=left;" parent="7vkCCJNquxt0IO_S3nZs-1" vertex="1">
                    <mxGeometry x="1500" y="350" width="430" height="60" as="geometry"/>
                </mxCell>
                <mxCell id="rkLm2avvO5fGkW5fXCIF-9" style="edgeStyle=none;html=1;" parent="7vkCCJNquxt0IO_S3nZs-1" source="rkLm2avvO5fGkW5fXCIF-7" target="rkLm2avvO5fGkW5fXCIF-0" edge="1">
                    <mxGeometry relative="1" as="geometry"/>
                </mxCell>
                <mxCell id="rkLm2avvO5fGkW5fXCIF-7" value="STEPS&lt;br&gt;1. USE THE WORLD HERITAGE LIST TO SELECT IN EXCEL BY REGIONS&amp;nbsp;&lt;br&gt;2. DIVIDE THE LIST ACCORDING TO THE NUMBER OF REGIONS AND THE PROPERTIES IN THE REGION&lt;br&gt;3. CONBERT THE SPREAD SHEET TO CSV&lt;br&gt;4. IMPORT IN TO QGIS&amp;nbsp;&lt;br&gt;5. SELECT BY LOCATION USING THE PUP AND WDAP AND THE WORLD HERITAGE LIST.&lt;br&gt;ASSESS THE QUALITY OF THE SHAPESFILES BASED ON THE REGIONS" style="rounded=0;whiteSpace=wrap;html=1;align=left;" parent="7vkCCJNquxt0IO_S3nZs-1" vertex="1">
                    <mxGeometry x="890" y="40" width="430" height="160" as="geometry"/>
                </mxCell>
                <mxCell id="SfDS3FEzj-up65MT24Co-0" value="Data" style="shape=parallelogram;html=1;strokeWidth=2;perimeter=parallelogramPerimeter;whiteSpace=wrap;rounded=1;arcSize=12;size=0.23;" parent="7vkCCJNquxt0IO_S3nZs-1" vertex="1">
                    <mxGeometry x="150" y="250" width="100" height="60" as="geometry"/>
                </mxCell>
                <mxCell id="SfDS3FEzj-up65MT24Co-1" value="Document" style="strokeWidth=2;html=1;shape=mxgraph.flowchart.document2;whiteSpace=wrap;size=0.25;" parent="7vkCCJNquxt0IO_S3nZs-1" vertex="1">
                    <mxGeometry x="120" y="450" width="100" height="60" as="geometry"/>
                </mxCell>
                <mxCell id="SfDS3FEzj-up65MT24Co-21" style="edgeStyle=none;curved=1;html=1;entryX=0;entryY=0.5;entryDx=0;entryDy=0;fontSize=12;fontColor=#F0F0F0;" parent="7vkCCJNquxt0IO_S3nZs-1" source="SfDS3FEzj-up65MT24Co-2" target="SfDS3FEzj-up65MT24Co-20" edge="1">
                    <mxGeometry relative="1" as="geometry"/>
                </mxCell>
                <mxCell id="SfDS3FEzj-up65MT24Co-25" style="edgeStyle=none;curved=1;html=1;entryX=0.5;entryY=0;entryDx=0;entryDy=0;entryPerimeter=0;fontSize=12;fontColor=#F0F0F0;" parent="7vkCCJNquxt0IO_S3nZs-1" source="SfDS3FEzj-up65MT24Co-2" target="SfDS3FEzj-up65MT24Co-23" edge="1">
                    <mxGeometry relative="1" as="geometry"/>
                </mxCell>
                <mxCell id="SfDS3FEzj-up65MT24Co-2" value="QGIS: Overlay the layers and select by Location using the Country layer and the WHList.CSV" style="rounded=1;whiteSpace=wrap;html=1;absoluteArcSize=1;arcSize=14;strokeWidth=2;" parent="7vkCCJNquxt0IO_S3nZs-1" vertex="1">
                    <mxGeometry x="480" y="430" width="150" height="70" as="geometry"/>
                </mxCell>
                <mxCell id="SfDS3FEzj-up65MT24Co-3" value="Decision" style="rhombus;whiteSpace=wrap;html=1;rounded=1;strokeWidth=2;arcSize=12;" parent="7vkCCJNquxt0IO_S3nZs-1" vertex="1">
                    <mxGeometry x="140" y="530" width="80" height="80" as="geometry"/>
                </mxCell>
                <mxCell id="SfDS3FEzj-up65MT24Co-4" value="Database" style="shape=cylinder3;whiteSpace=wrap;html=1;boundedLbl=1;backgroundOutline=1;size=15;" parent="7vkCCJNquxt0IO_S3nZs-1" vertex="1">
                    <mxGeometry x="160" y="340" width="60" height="80" as="geometry"/>
                </mxCell>
                <mxCell id="SfDS3FEzj-up65MT24Co-5" value="manual input" style="html=1;strokeWidth=2;shape=manualInput;whiteSpace=wrap;rounded=1;size=26;arcSize=11;" parent="7vkCCJNquxt0IO_S3nZs-1" vertex="1">
                    <mxGeometry x="140" y="150" width="100" height="60" as="geometry"/>
                </mxCell>
                <mxCell id="SfDS3FEzj-up65MT24Co-6" value="manual operation" style="verticalLabelPosition=bottom;verticalAlign=middle;html=1;shape=trapezoid;perimeter=trapezoidPerimeter;whiteSpace=wrap;size=0.22499999999999998;flipV=1;strokeWidth=2;" parent="7vkCCJNquxt0IO_S3nZs-1" vertex="1">
                    <mxGeometry x="130" y="640" width="100" height="60" as="geometry"/>
                </mxCell>
                <mxCell id="SfDS3FEzj-up65MT24Co-7" value="Data" style="shape=parallelogram;html=1;strokeWidth=2;perimeter=parallelogramPerimeter;whiteSpace=wrap;rounded=1;arcSize=12;size=0.23;" parent="7vkCCJNquxt0IO_S3nZs-1" vertex="1">
                    <mxGeometry x="130" y="810" width="100" height="60" as="geometry"/>
                </mxCell>
                <mxCell id="SfDS3FEzj-up65MT24Co-8" value="Process" style="rounded=1;whiteSpace=wrap;html=1;absoluteArcSize=1;arcSize=14;strokeWidth=2;" parent="7vkCCJNquxt0IO_S3nZs-1" vertex="1">
                    <mxGeometry x="120" y="900" width="140" height="60" as="geometry"/>
                </mxCell>
                <mxCell id="SfDS3FEzj-up65MT24Co-9" value="Approach: QGIS Data Preparation&lt;span style=&quot;color: rgba(0 , 0 , 0 , 0) ; font-family: monospace ; font-size: 0px&quot;&gt;%3CmxGraphModel%3E%3Croot%3E%3CmxCell%20id%3D%220%22%2F%3E%3CmxCell%20id%3D%221%22%20parent%3D%220%22%2F%3E%3CmxCell%20id%3D%222%22%20value%3D%22Approach%3A%20Data%20assessment.%26amp%3Bnbsp%3B%26lt%3Bbr%26gt%3BNumber%20of%20properties%2C%20Number%20of%20properties%20in%20their%20regions%22%20style%3D%22rounded%3D0%3BwhiteSpace%3Dwrap%3Bhtml%3D1%3Balign%3Dleft%3B%22%20vertex%3D%221%22%20parent%3D%221%22%3E%3CmxGeometry%20x%3D%22780%22%20y%3D%22530%22%20width%3D%22430%22%20height%3D%2260%22%20as%3D%22geometry%22%2F%3E%3C%2FmxCell%3E%3C%2Froot%3E%3C%2FmxGraphModel%3E&lt;/span&gt;&lt;br&gt;&amp;nbsp;" style="rounded=0;whiteSpace=wrap;html=1;align=left;" parent="7vkCCJNquxt0IO_S3nZs-1" vertex="1">
                    <mxGeometry x="320" y="80" width="430" height="60" as="geometry"/>
                </mxCell>
                <mxCell id="SfDS3FEzj-up65MT24Co-10" value="Aim: To prepare and conduct a data assessment process by region." style="rounded=0;whiteSpace=wrap;html=1;align=left;" parent="7vkCCJNquxt0IO_S3nZs-1" vertex="1">
                    <mxGeometry x="310" y="160" width="430" height="60" as="geometry"/>
                </mxCell>
                <mxCell id="SfDS3FEzj-up65MT24Co-18" style="edgeStyle=none;curved=1;html=1;entryX=0;entryY=0.5;entryDx=0;entryDy=0;" parent="7vkCCJNquxt0IO_S3nZs-1" source="SfDS3FEzj-up65MT24Co-11" target="SfDS3FEzj-up65MT24Co-2" edge="1">
                    <mxGeometry relative="1" as="geometry">
                        <Array as="points">
                            <mxPoint x="390" y="430"/>
                        </Array>
                    </mxGeometry>
                </mxCell>
                <mxCell id="SfDS3FEzj-up65MT24Co-11" value="Global Country Boundaries.shp" style="shape=parallelogram;html=1;strokeWidth=2;perimeter=parallelogramPerimeter;whiteSpace=wrap;rounded=1;arcSize=12;size=0.23;" parent="7vkCCJNquxt0IO_S3nZs-1" vertex="1">
                    <mxGeometry x="320" y="280" width="140" height="60" as="geometry"/>
                </mxCell>
                <mxCell id="SfDS3FEzj-up65MT24Co-19" style="edgeStyle=none;curved=1;html=1;" parent="7vkCCJNquxt0IO_S3nZs-1" source="SfDS3FEzj-up65MT24Co-12" target="SfDS3FEzj-up65MT24Co-2" edge="1">
                    <mxGeometry relative="1" as="geometry"/>
                </mxCell>
                <mxCell id="SfDS3FEzj-up65MT24Co-12" value="WHList.CSV" style="shape=parallelogram;html=1;strokeWidth=2;perimeter=parallelogramPerimeter;whiteSpace=wrap;rounded=1;arcSize=12;size=0.23;" parent="7vkCCJNquxt0IO_S3nZs-1" vertex="1">
                    <mxGeometry x="490" y="275" width="135" height="60" as="geometry"/>
                </mxCell>
                <mxCell id="SfDS3FEzj-up65MT24Co-37" style="edgeStyle=none;curved=1;html=1;entryX=1;entryY=0.5;entryDx=0;entryDy=0;fontSize=12;fontColor=#F0F0F0;" parent="7vkCCJNquxt0IO_S3nZs-1" source="SfDS3FEzj-up65MT24Co-13" target="SfDS3FEzj-up65MT24Co-35" edge="1">
                    <mxGeometry relative="1" as="geometry"/>
                </mxCell>
                <mxCell id="SfDS3FEzj-up65MT24Co-13" value="World Heritage &lt;br&gt;Properties from PUP and WPDA.shp" style="shape=parallelogram;html=1;strokeWidth=2;perimeter=parallelogramPerimeter;whiteSpace=wrap;rounded=1;arcSize=12;size=0.23;" parent="7vkCCJNquxt0IO_S3nZs-1" vertex="1">
                    <mxGeometry x="655" y="815" width="190" height="70" as="geometry"/>
                </mxCell>
                <mxCell id="SfDS3FEzj-up65MT24Co-20" value="&lt;h2 style=&quot;margin: 16px 0px 12px&quot;&gt;&lt;span style=&quot;font-weight: normal&quot;&gt;&lt;font style=&quot;font-size: 12px&quot;&gt;This algorithm creates a selection in a vector layer. The criteria for selecting features is based on the spatial relationship between each feature and the features in an additional layer. The process adds the attributes of the WHList to the Country layer&lt;/font&gt;&lt;/span&gt;&lt;/h2&gt;" style="rounded=0;whiteSpace=wrap;html=1;align=left;" parent="7vkCCJNquxt0IO_S3nZs-1" vertex="1">
                    <mxGeometry x="690" y="340" width="300" height="110" as="geometry"/>
                </mxCell>
                <mxCell id="SfDS3FEzj-up65MT24Co-30" style="edgeStyle=none;curved=1;html=1;fontSize=12;fontColor=#F0F0F0;" parent="7vkCCJNquxt0IO_S3nZs-1" source="SfDS3FEzj-up65MT24Co-23" target="SfDS3FEzj-up65MT24Co-29" edge="1">
                    <mxGeometry relative="1" as="geometry"/>
                </mxCell>
                <mxCell id="SfDS3FEzj-up65MT24Co-32" style="edgeStyle=none;curved=1;html=1;entryX=0;entryY=0.75;entryDx=0;entryDy=0;fontSize=12;fontColor=#F0F0F0;" parent="7vkCCJNquxt0IO_S3nZs-1" source="SfDS3FEzj-up65MT24Co-23" target="SfDS3FEzj-up65MT24Co-31" edge="1">
                    <mxGeometry relative="1" as="geometry"/>
                </mxCell>
                <mxCell id="SfDS3FEzj-up65MT24Co-23" value="Country Boundary" style="shape=mxgraph.bpmn.data;labelPosition=center;verticalLabelPosition=bottom;align=center;verticalAlign=top;whiteSpace=wrap;size=15;html=1;bpmnTransferType=output;fontSize=12;fontColor=#F0F0F0;" parent="7vkCCJNquxt0IO_S3nZs-1" vertex="1">
                    <mxGeometry x="515" y="520" width="85" height="50" as="geometry"/>
                </mxCell>
                <mxCell id="SfDS3FEzj-up65MT24Co-34" style="edgeStyle=none;curved=1;html=1;fontSize=12;fontColor=#F0F0F0;" parent="7vkCCJNquxt0IO_S3nZs-1" source="SfDS3FEzj-up65MT24Co-29" target="SfDS3FEzj-up65MT24Co-33" edge="1">
                    <mxGeometry relative="1" as="geometry"/>
                </mxCell>
                <mxCell id="SfDS3FEzj-up65MT24Co-29" value="Selecty by attribute the regions and create new layer.Shp for each region" style="rounded=1;whiteSpace=wrap;html=1;absoluteArcSize=1;arcSize=14;strokeWidth=2;" parent="7vkCCJNquxt0IO_S3nZs-1" vertex="1">
                    <mxGeometry x="487.5" y="620" width="140" height="60" as="geometry"/>
                </mxCell>
                <mxCell id="SfDS3FEzj-up65MT24Co-31" value="Insert manually countries without regions but with properties" style="html=1;strokeWidth=2;shape=manualInput;whiteSpace=wrap;rounded=1;size=26;arcSize=11;" parent="7vkCCJNquxt0IO_S3nZs-1" vertex="1">
                    <mxGeometry x="670" y="480" width="160" height="80" as="geometry"/>
                </mxCell>
                <mxCell id="SfDS3FEzj-up65MT24Co-36" style="edgeStyle=none;curved=1;html=1;entryX=0.5;entryY=0;entryDx=0;entryDy=0;fontSize=12;fontColor=#F0F0F0;" parent="7vkCCJNquxt0IO_S3nZs-1" source="SfDS3FEzj-up65MT24Co-33" target="SfDS3FEzj-up65MT24Co-35" edge="1">
                    <mxGeometry relative="1" as="geometry"/>
                </mxCell>
                <mxCell id="SfDS3FEzj-up65MT24Co-33" value="Country by Regions.shp" style="shape=mxgraph.bpmn.data;labelPosition=center;verticalLabelPosition=bottom;align=center;verticalAlign=top;whiteSpace=wrap;size=15;html=1;bpmnTransferType=output;fontSize=12;fontColor=#F0F0F0;" parent="7vkCCJNquxt0IO_S3nZs-1" vertex="1">
                    <mxGeometry x="507.5" y="710" width="100" height="60" as="geometry"/>
                </mxCell>
                <mxCell id="SfDS3FEzj-up65MT24Co-39" style="edgeStyle=none;curved=1;html=1;entryX=0.5;entryY=0;entryDx=0;entryDy=0;entryPerimeter=0;fontSize=12;fontColor=#F0F0F0;" parent="7vkCCJNquxt0IO_S3nZs-1" source="SfDS3FEzj-up65MT24Co-35" target="SfDS3FEzj-up65MT24Co-38" edge="1">
                    <mxGeometry relative="1" as="geometry"/>
                </mxCell>
                <mxCell id="SfDS3FEzj-up65MT24Co-35" value="&lt;br&gt;Select by location the Heritage Properties using the regions" style="rounded=1;whiteSpace=wrap;html=1;absoluteArcSize=1;arcSize=14;strokeWidth=2;" parent="7vkCCJNquxt0IO_S3nZs-1" vertex="1">
                    <mxGeometry x="485" y="820" width="140" height="60" as="geometry"/>
                </mxCell>
                <mxCell id="SfDS3FEzj-up65MT24Co-38" value="World Heritage properties by Region" style="shape=mxgraph.bpmn.data;labelPosition=center;verticalLabelPosition=bottom;align=center;verticalAlign=top;whiteSpace=wrap;size=15;html=1;bpmnTransferType=output;fontSize=12;fontColor=#F0F0F0;" parent="7vkCCJNquxt0IO_S3nZs-1" vertex="1">
                    <mxGeometry x="502.5" y="920" width="110" height="60" as="geometry"/>
                </mxCell>
            </root>
        </mxGraphModel>
    </diagram>
</mxfile>